  0
SECTION
  2
HEADER
  9
$ACADVER
  1
AC1032
  9
$ACADMAINTVER
 90
      228
  9
$DWGCODEPAGE
  3
ANSI_1252
  9
$REQUIREDVERSIONS
160
                 0
  9
$INSBASE
 10
0.0
 20
0.0
 30
0.0
  9
$EXTMIN
 10
1.000000000000000E+20
 20
1.000000000000000E+20
 30
1.000000000000000E+20
  9
$EXTMAX
 10
-1.000000000000000E+20
 20
-1.000000000000000E+20
 30
-1.000000000000000E+20
  9
$LIMMIN
 10
0.0
 20
0.0
  9
$LIMMAX
 10
12.0
 20
9.0
  9
$ORTHOMODE
 70
     0
  9
$REGENMODE
 70
     1
  9
$FILLMODE
 70
     1
  9
$QTEXTMODE
 70
     0
  9
$MIRRTEXT
 70
     0
  9
$LTSCALE
 40
1.0
  9
$ATTMODE
 70
     1
  9
$TEXTSIZE
 40
0.2
  9
$TRACEWID
 40
0.05
  9
$TEXTSTYLE
  7
Standard
  9
$CLAYER
  8
0
  9
$CELTYPE
  6
ByLayer
  9
$CECOLOR
 62
   256
  9
$CELTSCALE
 40
1.0
  9
$DISPSILH
 70
     0
  9
$DIMSCALE
 40
1.0
  9
$DIMASZ
 40
0.18
  9
$DIMEXO
 40
0.0625
  9
$DIMDLI
 40
0.38
  9
$DIMRND
 40
0.0
  9
$DIMDLE
 40
0.0
  9
$DIMEXE
 40
0.18
  9
$DIMTP
 40
0.0
  9
$DIMTM
 40
0.0
  9
$DIMTXT
 40
0.18
  9
$DIMCEN
 40
0.09
  9
$DIMTSZ
 40
0.0
  9
$DIMTOL
 70
     0
  9
$DIMLIM
 70
     0
  9
$DIMTIH
 70
     1
  9
$DIMTOH
 70
     1
  9
$DIMSE1
 70
     0
  9
$DIMSE2
 70
     0
  9
$DIMTAD
 70
     0
  9
$DIMZIN
 70
     0
  9
$DIMBLK
  1

  9
$DIMASO
 70
     1
  9
$DIMSHO
 70
     1
  9
$DIMPOST
  1

  9
$DIMAPOST
  1

  9
$DIMALT
 70
     0
  9
$DIMALTD
 70
     2
  9
$DIMALTF
 40
25.4
  9
$DIMLFAC
 40
1.0
  9
$DIMTOFL
 70
     0
  9
$DIMTVP
 40
0.0
  9
$DIMTIX
 70
     0
  9
$DIMSOXD
 70
     0
  9
$DIMSAH
 70
     0
  9
$DIMBLK1
  1

  9
$DIMBLK2
  1

  9
$DIMSTYLE
  2
Standard
  9
$DIMCLRD
 70
     0
  9
$DIMCLRE
 70
     0
  9
$DIMCLRT
 70
     0
  9
$DIMTFAC
 40
1.0
  9
$DIMGAP
 40
0.09
  9
$DIMJUST
 70
     0
  9
$DIMSD1
 70
     0
  9
$DIMSD2
 70
     0
  9
$DIMTOLJ
 70
     1
  9
$DIMTZIN
 70
     0
  9
$DIMALTZ
 70
     0
  9
$DIMALTTZ
 70
     0
  9
$DIMUPT
 70
     0
  9
$DIMDEC
 70
     4
  9
$DIMTDEC
 70
     4
  9
$DIMALTU
 70
     2
  9
$DIMALTTD
 70
     2
  9
$DIMTXSTY
  7
Standard
  9
$DIMAUNIT
 70
     0
  9
$DIMADEC
 70
     0
  9
$DIMALTRND
 40
0.0
  9
$DIMAZIN
 70
     0
  9
$DIMDSEP
 70
    46
  9
$DIMATFIT
 70
     3
  9
$DIMFRAC
 70
     0
  9
$DIMLDRBLK
  1

  9
$DIMLUNIT
 70
     2
  9
$DIMLWD
 70
    -2
  9
$DIMLWE
 70
    -2
  9
$DIMTMOVE
 70
     0
  9
$DIMFXL
 40
1.0
  9
$DIMFXLON
 70
     0
  9
$DIMJOGANG
 40
0.7853981633974483
  9
$DIMTFILL
 70
     0
  9
$DIMTFILLCLR
 70
     0
  9
$DIMARCSYM
 70
     0
  9
$DIMLTYPE
  6

  9
$DIMLTEX1
  6

  9
$DIMLTEX2
  6

  9
$DIMTXTDIRECTION
 70
     0
  9
$LUNITS
 70
     2
  9
$LUPREC
 70
     4
  9
$SKETCHINC
 40
0.1
  9
$FILLETRAD
 40
0.0
  9
$AUNITS
 70
     0
  9
$AUPREC
 70
     0
  9
$MENU
  1
.
  9
$ELEVATION
 40
0.0
  9
$PELEVATION
 40
0.0
  9
$THICKNESS
 40
0.0
  9
$LIMCHECK
 70
     0
  9
$CHAMFERA
 40
0.0
  9
$CHAMFERB
 40
0.0
  9
$CHAMFERC
 40
0.0
  9
$CHAMFERD
 40
0.0
  9
$SKPOLY
 70
     0
  9
$TDCREATE
 40
2460539.038055556
  9
$TDUCREATE
 40
2460538.746388889
  9
$TDUPDATE
 40
2460539.038055556
  9
$TDUUPDATE
 40
2460538.746388889
  9
$TDINDWG
 40
0.0000000000
  9
$TDUSRTIMER
 40
0.0000000000
  9
$USRTIMER
 70
     1
  9
$ANGBASE
 50
0.0
  9
$ANGDIR
 70
     0
  9
$PDMODE
 70
     0
  9
$PDSIZE
 40
0.0
  9
$PLINEWID
 40
0.0
  9
$SPLFRAME
 70
     0
  9
$SPLINETYPE
 70
     6
  9
$SPLINESEGS
 70
     8
  9
$HANDSEED
  5
A7
  9
$SURFTAB1
 70
     6
  9
$SURFTAB2
 70
     6
  9
$SURFTYPE
 70
     6
  9
$SURFU
 70
     6
  9
$SURFV
 70
     6
  9
$UCSBASE
  2

  9
$UCSNAME
  2

  9
$UCSORG
 10
0.0
 20
0.0
 30
0.0
  9
$UCSXDIR
 10
1.0
 20
0.0
 30
0.0
  9
$UCSYDIR
 10
0.0
 20
1.0
 30
0.0
  9
$UCSORTHOREF
  2

  9
$UCSORTHOVIEW
 70
     0
  9
$UCSORGTOP
 10
0.0
 20
0.0
 30
0.0
  9
$UCSORGBOTTOM
 10
0.0
 20
0.0
 30
0.0
  9
$UCSORGLEFT
 10
0.0
 20
0.0
 30
0.0
  9
$UCSORGRIGHT
 10
0.0
 20
0.0
 30
0.0
  9
$UCSORGFRONT
 10
0.0
 20
0.0
 30
0.0
  9
$UCSORGBACK
 10
0.0
 20
0.0
 30
0.0
  9
$PUCSBASE
  2

  9
$PUCSNAME
  2

  9
$PUCSORG
 10
0.0
 20
0.0
 30
0.0
  9
$PUCSXDIR
 10
1.0
 20
0.0
 30
0.0
  9
$PUCSYDIR
 10
0.0
 20
1.0
 30
0.0
  9
$PUCSORTHOREF
  2

  9
$PUCSORTHOVIEW
 70
     0
  9
$PUCSORGTOP
 10
0.0
 20
0.0
 30
0.0
  9
$PUCSORGBOTTOM
 10
0.0
 20
0.0
 30
0.0
  9
$PUCSORGLEFT
 10
0.0
 20
0.0
 30
0.0
  9
$PUCSORGRIGHT
 10
0.0
 20
0.0
 30
0.0
  9
$PUCSORGFRONT
 10
0.0
 20
0.0
 30
0.0
  9
$PUCSORGBACK
 10
0.0
 20
0.0
 30
0.0
  9
$USERI1
 70
     0
  9
$USERI2
 70
     0
  9
$USERI3
 70
     0
  9
$USERI4
 70
     0
  9
$USERI5
 70
     0
  9
$USERR1
 40
0.0
  9
$USERR2
 40
0.0
  9
$USERR3
 40
0.0
  9
$USERR4
 40
0.0
  9
$USERR5
 40
0.0
  9
$WORLDVIEW
 70
     1
  9
$SHADEDGE
 70
     3
  9
$SHADEDIF
 70
    70
  9
$TILEMODE
 70
     1
  9
$MAXACTVP
 70
    64
  9
$PINSBASE
 10
0.0
 20
0.0
 30
0.0
  9
$PLIMCHECK
 70
     0
  9
$PEXTMIN
 10
1.000000000000000E+20
 20
1.000000000000000E+20
 30
1.000000000000000E+20
  9
$PEXTMAX
 10
-1.000000000000000E+20
 20
-1.000000000000000E+20
 30
-1.000000000000000E+20
  9
$PLIMMIN
 10
0.0
 20
0.0
  9
$PLIMMAX
 10
12.0
 20
9.0
  9
$UNITMODE
 70
     0
  9
$VISRETAIN
 70
     1
  9
$PLINEGEN
 70
     0
  9
$PSLTSCALE
 70
     1
  9
$TREEDEPTH
 70
  3020
  9
$CMLSTYLE
  2
Standard
  9
$CMLJUST
 70
     0
  9
$CMLSCALE
 40
1.0
  9
$PROXYGRAPHICS
 70
     1
  9
$MEASUREMENT
 70
     0
  9
$CELWEIGHT
370
    -1
  9
$ENDCAPS
280
     0
  9
$JOINSTYLE
280
     0
  9
$LWDISPLAY
290
     1
  9
$INSUNITS
 70
     4
  9
$HYPERLINKBASE
  1

  9
$STYLESHEET
  1

  9
$XEDIT
290
     1
  9
$CEPSNTYPE
380
     0
  9
$PSTYLEMODE
290
     1
  9
$FINGERPRINTGUID
  2
{4A6C5824-1CC5-374B-8E06-61A54704C125}
  9
$VERSIONGUID
  2
{E64827BB-EC0D-184A-83E6-D28532BD2AB4}
  9
$EXTNAMES
290
     1
  9
$PSVPSCALE
 40
0.0
  9
$OLESTARTUP
290
     0
  9
$SORTENTS
280
   127
  9
$INDEXCTL
280
     0
  9
$HIDETEXT
280
     1
  9
$XCLIPFRAME
280
     2
  9
$HALOGAP
280
     0
  9
$OBSCOLOR
 70
   257
  9
$OBSLTYPE
280
     0
  9
$INTERSECTIONDISPLAY
280
     0
  9
$INTERSECTIONCOLOR
 70
   257
  9
$DIMASSOC
280
     2
  9
$PROJECTNAME
  1

  9
$CAMERADISPLAY
290
     0
  9
$LENSLENGTH
 40
50.0
  9
$CAMERAHEIGHT
 40
0.0
  9
$STEPSPERSEC
 40
2.0
  9
$STEPSIZE
 40
6.0
  9
$3DDWFPREC
 40
2.0
  9
$PSOLWIDTH
 40
0.25
  9
$PSOLHEIGHT
 40
4.0
  9
$LOFTANG1
 40
1.570796326794896
  9
$LOFTANG2
 40
1.570796326794896
  9
$LOFTMAG1
 40
0.0
  9
$LOFTMAG2
 40
0.0
  9
$LOFTPARAM
 70
     7
  9
$LOFTNORMALS
280
     1
  9
$LATITUDE
 40
37.795
  9
$LONGITUDE
 40
-122.394
  9
$NORTHDIRECTION
 40
0.0
  9
$TIMEZONE
 70
 -8000
  9
$LIGHTGLYPHDISPLAY
280
     1
  9
$TILEMODELIGHTSYNCH
280
     1
  9
$CMATERIAL
347
11
  9
$SOLIDHIST
280
     0
  9
$SHOWHIST
280
     1
  9
$DWFFRAME
280
     2
  9
$DGNFRAME
280
     0
  9
$REALWORLDSCALE
290
     1
  9
$INTERFERECOLOR
 62
     1
  9
$INTERFEREOBJVS
345
33
  9
$INTERFEREVPVS
346
30
  9
$CSHADOW
280
     0
  9
$SHADOWPLANELOCATION
 40
0.0
  0
ENDSEC
  0
SECTION
  2
CLASSES
  0
CLASS
  1
ACDBDICTIONARYWDFLT
  2
AcDbDictionaryWithDefault
  3
ObjectDBX Classes
 90
        0
 91
        1
280
     0
281
     0
  0
CLASS
  1
MATERIAL
  2
AcDbMaterial
  3
ObjectDBX Classes
 90
     1153
 91
        3
280
     0
281
     0
  0
CLASS
  1
VISUALSTYLE
  2
AcDbVisualStyle
  3
ObjectDBX Classes
 90
     4095
 91
       24
280
     0
281
     0
  0
CLASS
  1
SCALE
  2
AcDbScale
  3
ObjectDBX Classes
 90
     1153
 91
       17
280
     0
281
     0
  0
CLASS
  1
TABLESTYLE
  2
AcDbTableStyle
  3
ObjectDBX Classes
 90
     4095
 91
        1
280
     0
281
     0
  0
CLASS
  1
MLEADERSTYLE
  2
AcDbMLeaderStyle
  3
ACDB_MLEADERSTYLE_CLASS
 90
     4095
 91
        1
280
     0
281
     0
  0
CLASS
  1
ACDBSECTIONVIEWSTYLE
  2
AcDbSectionViewStyle
  3
ObjectDBX Classes
 90
     1025
 91
        1
280
     0
281
     0
  0
CLASS
  1
ACDBDETAILVIEWSTYLE
  2
AcDbDetailViewStyle
  3
ObjectDBX Classes
 90
     1025
 91
        1
280
     0
281
     0
  0
CLASS
  1
DICTIONARYVAR
  2
AcDbDictionaryVar
  3
ObjectDBX Classes
 90
        0
 91
        5
280
     0
281
     0
  0
CLASS
  1
CELLSTYLEMAP
  2
AcDbCellStyleMap
  3
ObjectDBX Classes
 90
     1152
 91
        1
280
     0
281
     0
  0
ENDSEC
  0
SECTION
  2
TABLES
  0
TABLE
  2
VPORT
  5
8
330
0
100
AcDbSymbolTable
 70
     1
  0
VPORT
  5
57
330
8
100
AcDbSymbolTableRecord
100
AcDbViewportTableRecord
  2
*Active
 70
     0
 10
0.0
 20
0.0
 11
1.0
 21
1.0
 12
0.0
 22
0.0
 13
0.0
 23
0.0
 14
1.0
 24
1.0
 15
0.0
 25
0.0
 16
0.0
 26
0.0
 36
1.0
 17
104.9999970067632
 27
-148.5000119155931
 37
0.0
 40
302.9400243078099
 41
0.7070706301791066
 42
50.0
 43
0.0
 44
0.0
 50
0.0
 51
0.0
 71
     0
 72
   100
 73
     1
 74
     1
 75
     0
 76
     0
 77
     0
 78
     0
281
     0
 65
     1
110
0.0
120
0.0
130
0.0
111
1.0
121
0.0
131
0.0
112
0.0
122
1.0
132
0.0
 79
     0
146
0.0
 60
     3
 61
     5
292
     1
282
     1
141
0.0
142
0.0
 63
   250
421
  3355443
  0
ENDTAB
  0
TABLE
  2
LTYPE
  5
5
330
0
100
AcDbSymbolTable
 70
     1
  0
LTYPE
  5
5B
330
5
100
AcDbSymbolTableRecord
100
AcDbLinetypeTableRecord
  2
ByBlock
 70
     0
  3

 72
    65
 73
     0
 40
0.0
  0
LTYPE
  5
5C
330
5
100
AcDbSymbolTableRecord
100
AcDbLinetypeTableRecord
  2
ByLayer
 70
     0
  3

 72
    65
 73
     0
 40
0.0
  0
LTYPE
  5
5D
330
5
100
AcDbSymbolTableRecord
100
AcDbLinetypeTableRecord
  2
Continuous
 70
     0
  3
Solid line
 72
    65
 73
     0
 40
0.0
  0
ENDTAB
  0
TABLE
  2
LAYER
  5
2
330
0
100
AcDbSymbolTable
 70
     2
  0
LAYER
  5
54
330
2
100
AcDbSymbolTableRecord
100
AcDbLayerTableRecord
  2
0
 70
     0
 62
     7
  6
Continuous
370
    -3
390
F
347
21
348
0
  0
LAYER
  5
78
330
2
100
AcDbSymbolTableRecord
100
AcDbLayerTableRecord
  2
Layer 1
 70
     0
 62
     7
  6
Continuous
370
     0
390
F
347
21
348
0
  0
ENDTAB
  0
TABLE
  2
STYLE
  5
3
330
0
100
AcDbSymbolTable
 70
     2
  0
STYLE
  5
55
330
3
100
AcDbSymbolTableRecord
100
AcDbTextStyleTableRecord
  2
Standard
 70
     0
 40
0.0
 41
1.0
 50
0.0
 71
     0
 42
0.2
  3
txt
  4

  0
STYLE
  5
5A
330
3
100
AcDbSymbolTableRecord
100
AcDbTextStyleTableRecord
  2
Annotative
 70
     0
 40
0.0
 41
1.0
 50
0.0
 71
     0
 42
0.2
  3
txt
  4

1001
AcadAnnotative
1000
AnnotativeData
1002
{
1070
     1
1070
     1
1002
}
  0
ENDTAB
  0
TABLE
  2
VIEW
  5
6
330
0
100
AcDbSymbolTable
 70
     0
  0
ENDTAB
  0
TABLE
  2
UCS
  5
7
330
0
100
AcDbSymbolTable
 70
     0
  0
ENDTAB
  0
TABLE
  2
APPID
  5
9
330
0
100
AcDbSymbolTable
 70
     2
  0
APPID
  5
56
330
9
100
AcDbSymbolTableRecord
100
AcDbRegAppTableRecord
  2
ACAD
 70
     0
  0
APPID
  5
5E
330
9
100
AcDbSymbolTableRecord
100
AcDbRegAppTableRecord
  2
AcadAnnotative
 70
     0
  0
ENDTAB
  0
TABLE
  2
DIMSTYLE
  5
A
330
0
100
AcDbSymbolTable
 70
     2
100
AcDbDimStyleTable
 71
     0
  0
DIMSTYLE
105
58
330
A
100
AcDbSymbolTableRecord
100
AcDbDimStyleTableRecord
  2
Standard
 70
     0
340
55
  0
DIMSTYLE
105
59
330
A
100
AcDbSymbolTableRecord
100
AcDbDimStyleTableRecord
  2
Annotative
 70
     0
340
55
1001
AcadAnnotative
1000
AnnotativeData
1002
{
1070
     1
1070
     1
1002
}
  0
ENDTAB
  0
TABLE
  2
BLOCK_RECORD
  5
1
330
0
100
AcDbSymbolTable
 70
     1
  0
BLOCK_RECORD
  5
70
330
1
100
AcDbSymbolTableRecord
100
AcDbBlockTableRecord
  2
*Model_Space
340
73
 70
     0
280
     1
281
     0
  0
BLOCK_RECORD
  5
6C
330
1
100
AcDbSymbolTableRecord
100
AcDbBlockTableRecord
  2
*Paper_Space
340
6F
 70
     0
280
     1
281
     0
  0
BLOCK_RECORD
  5
74
330
1
100
AcDbSymbolTableRecord
100
AcDbBlockTableRecord
  2
*Paper_Space0
340
77
 70
     0
280
     1
281
     0
  0
ENDTAB
  0
ENDSEC
  0
SECTION
  2
BLOCKS
  0
BLOCK
  5
71
330
70
100
AcDbEntity
  8
0
100
AcDbBlockBegin
  2
*Model_Space
 70
     0
 10
0.0
 20
0.0
 30
0.0
  3
*Model_Space
  1

  0
ENDBLK
  5
72
330
70
100
AcDbEntity
  8
0
100
AcDbBlockEnd
  0
BLOCK
  5
6D
330
6C
100
AcDbEntity
 67
     1
  8
0
100
AcDbBlockBegin
  2
*Paper_Space
 70
     0
 10
0.0
 20
0.0
 30
0.0
  3
*Paper_Space
  1

  0
ENDBLK
  5
6E
330
6C
100
AcDbEntity
 67
     1
  8
0
100
AcDbBlockEnd
  0
BLOCK
  5
75
330
74
100
AcDbEntity
 67
     1
  8
0
100
AcDbBlockBegin
  2
*Paper_Space0
 70
     0
 10
0.0
 20
0.0
 30
0.0
  3
*Paper_Space0
  1

  0
ENDBLK
  5
76
330
74
100
AcDbEntity
 67
     1
  8
0
100
AcDbBlockEnd
  0
ENDSEC
  0
SECTION
  2
ENTITIES
  0
SPLINE
  5
79
330
70
100
AcDbEntity
  8
Layer 1
 62
   250
420
  2301728
370
    35
100
AcDbSpline
210
0.0
220
0.0
230
1.0
 70
    11
 71
     3
 72
    17
 73
    13
 74
     0
 42
0.0000000001
 43
0.0000000001
 40
0.0
 40
0.0
 40
0.0
 40
0.0
 40
1.0
 40
1.0
 40
1.0
 40
2.0
 40
2.0
 40
2.0
 40
3.0
 40
3.0
 40
3.0
 40
4.0
 40
4.0
 40
4.0
 40
4.0
 10
180.7332188472321
 20
-41.17591043078707
 30
0.0
 10
180.7332188472321
 20
-41.17591043078707
 30
0.0
 10
165.321971767209
 20
-41.17591043078707
 30
0.0
 10
165.321971767209
 20
-41.17591043078707
 30
0.0
 10
165.321971767209
 20
-41.17591043078707
 30
0.0
 10
165.321971767209
 20
-38.32197179895901
 30
0.0
 10
165.321971767209
 20
-38.32197179895901
 30
0.0
 10
165.321971767209
 20
-38.32197179895901
 30
0.0
 10
180.7332188472321
 20
-38.32197179895901
 30
0.0
 10
180.7332188472321
 20
-38.32197179895901
 30
0.0
 10
180.7332188472321
 20
-38.32197179895901
 30
0.0
 10
180.7332188472321
 20
-41.17591043078707
 30
0.0
 10
180.7332188472321
 20
-41.17591043078707
 30
0.0
  0
SPLINE
  5
7A
330
70
100
AcDbEntity
  8
Layer 1
 62
   250
420
  2301728
370
    35
100
AcDbSpline
210
0.0
220
0.0
230
1.0
 70
     9
 71
     3
 72
    17
 73
    13
 74
     0
 42
0.0000000001
 43
0.0000000001
 40
0.0
 40
0.0
 40
0.0
 40
0.0
 40
1.0
 40
1.0
 40
1.0
 40
2.0
 40
2.0
 40
2.0
 40
3.0
 40
3.0
 40
3.0
 40
4.0
 40
4.0
 40
4.0
 40
4.0
 10
171.1151151441244
 20
-83.66379934974379
 30
0.0
 10
171.1151151441244
 20
-81.90374313002351
 30
0.0
 10
172.5419229711874
 20
-80.47691377111341
 30
0.0
 10
174.3020007227548
 20
-80.47691377111341
 30
0.0
 10
176.0620784743221
 20
-80.47691377111341
 30
0.0
 10
177.4888863013852
 20
-81.90374313002351
 30
0.0
 10
177.4888863013852
 20
-83.66379934974379
 30
0.0
 10
177.4888863013852
 20
-85.42387710131114
 30
0.0
 10
176.0620784743221
 20
-86.85070646022092
 30
0.0
 10
174.3020007227548
 20
-86.85070646022092
 30
0.0
 10
172.5419229711874
 20
-86.85070646022092
 30
0.0
 10
171.1151151441244
 20
-85.42387710131114
 30
0.0
 10
171.1151151441244
 20
-83.66379934974379
 30
0.0
  0
SPLINE
  5
7B
330
70
100
AcDbEntity
  8
Layer 1
 62
   250
420
  2301728
370
    35
100
AcDbSpline
210
0.0
220
0.0
230
1.0
 70
    11
 71
     3
 72
    17
 73
    13
 74
     0
 42
0.0000000001
 43
0.0000000001
 40
0.0
 40
0.0
 40
0.0
 40
0.0
 40
1.0
 40
1.0
 40
1.0
 40
2.0
 40
2.0
 40
2.0
 40
3.0
 40
3.0
 40
3.0
 40
4.0
 40
4.0
 40
4.0
 40
4.0
 10
178.5729501913594
 20
-129.6874328289066
 30
0.0
 10
178.5729501913594
 20
-129.6874328289066
 30
0.0
 10
163.2568308104227
 20
-129.6874328289066
 30
0.0
 10
163.2568308104227
 20
-129.6874328289066
 30
0.0
 10
163.2568308104227
 20
-129.6874328289066
 30
0.0
 10
163.2568308104227
 20
-127.0237711270985
 30
0.0
 10
163.2568308104227
 20
-127.0237711270985
 30
0.0
 10
163.2568308104227
 20
-127.0237711270985
 30
0.0
 10
178.5729501913594
 20
-127.0237711270985
 30
0.0
 10
178.5729501913594
 20
-127.0237711270985
 30
0.0
 10
178.5729501913594
 20
-127.0237711270985
 30
0.0
 10
178.5729501913594
 20
-129.6874328289066
 30
0.0
 10
178.5729501913594
 20
-129.6874328289066
 30
0.0
  0
SPLINE
  5
7C
330
70
100
AcDbEntity
  8
Layer 1
 62
   250
420
  2301728
370
    35
100
AcDbSpline
210
0.0
220
0.0
230
1.0
 70
    11
 71
     3
 72
    17
 73
    13
 74
     0
 42
0.0000000001
 43
0.0000000001
 40
0.0
 40
0.0
 40
0.0
 40
0.0
 40
1.0
 40
1.0
 40
1.0
 40
2.0
 40
2.0
 40
2.0
 40
3.0
 40
3.0
 40
3.0
 40
4.0
 40
4.0
 40
4.0
 40
4.0
 10
126.1279601735461
 20
-52.05748137126297
 30
0.0
 10
126.1279601735461
 20
-52.05748137126297
 30
0.0
 10
110.6216069262834
 20
-52.05748137126297
 30
0.0
 10
110.6216069262834
 20
-52.05748137126297
 30
0.0
 10
110.6216069262834
 20
-52.05748137126297
 30
0.0
 10
110.6216069262834
 20
-49.13916251755495
 30
0.0
 10
110.6216069262834
 20
-49.13916251755495
 30
0.0
 10
110.6216069262834
 20
-49.13916251755495
 30
0.0
 10
126.1279601735461
 20
-49.13916251755495
 30
0.0
 10
126.1279601735461
 20
-49.13916251755495
 30
0.0
 10
126.1279601735461
 20
-49.13916251755495
 30
0.0
 10
126.1279601735461
 20
-52.05748137126297
 30
0.0
 10
126.1279601735461
 20
-52.05748137126297
 30
0.0
  0
SPLINE
  5
7D
330
70
100
AcDbEntity
  8
Layer 1
 62
   250
420
  2301728
370
    35
100
AcDbSpline
210
0.0
220
0.0
230
1.0
 70
    11
 71
     3
 72
    17
 73
    13
 74
     0
 42
0.0000000001
 43
0.0000000001
 40
0.0
 40
0.0
 40
0.0
 40
0.0
 40
1.0
 40
1.0
 40
1.0
 40
2.0
 40
2.0
 40
2.0
 40
3.0
 40
3.0
 40
3.0
 40
4.0
 40
4.0
 40
4.0
 40
4.0
 10
122.7309883658559
 20
-85.84318828555961
 30
0.0
 10
121.0497171735136
 20
-85.84318828555961
 30
0.0
 10
119.6867943358552
 20
-84.48026544790121
 30
0.0
 10
119.6867943358552
 20
-82.79899425555894
 30
0.0
 10
119.6867943358552
 20
-81.11772306321666
 30
0.0
 10
121.0497171735136
 20
-79.75480022555827
 30
0.0
 10
122.7309883658559
 20
-79.75480022555827
 30
0.0
 10
124.4122595581981
 20
-79.75480022555827
 30
0.0
 10
125.7751823958565
 20
-81.11772306321666
 30
0.0
 10
125.7751823958565
 20
-82.79899425555894
 30
0.0
 10
125.7751823958565
 20
-84.48026544790121
 30
0.0
 10
124.4122595581981
 20
-85.84318828555961
 30
0.0
 10
122.7309883658559
 20
-85.84318828555961
 30
0.0
  0
SPLINE
  5
7E
330
70
100
AcDbEntity
  8
Layer 1
 62
   250
420
  2301728
370
    35
100
AcDbSpline
210
0.0
220
0.0
230
1.0
 70
    11
 71
     3
 72
    17
 73
    13
 74
     0
 42
0.0000000001
 43
0.0000000001
 40
0.0
 40
0.0
 40
0.0
 40
0.0
 40
1.0
 40
1.0
 40
1.0
 40
2.0
 40
2.0
 40
2.0
 40
3.0
 40
3.0
 40
3.0
 40
4.0
 40
4.0
 40
4.0
 40
4.0
 10
124.9190115722316
 20
-116.2184659879267
 30
0.0
 10
124.9190115722316
 20
-116.2184659879267
 30
0.0
 10
109.3175090940356
 20
-116.2184659879267
 30
0.0
 10
109.3175090940356
 20
-116.2184659879267
 30
0.0
 10
109.3175090940356
 20
-116.2184659879267
 30
0.0
 10
109.3175090940356
 20
-113.2693996570125
 30
0.0
 10
109.3175090940356
 20
-113.2693996570125
 30
0.0
 10
109.3175090940356
 20
-113.2693996570125
 30
0.0
 10
124.9190115722316
 20
-113.2693996570125
 30
0.0
 10
124.9190115722316
 20
-113.2693996570125
 30
0.0
 10
124.9190115722316
 20
-113.2693996570125
 30
0.0
 10
124.9190115722316
 20
-116.2184659879267
 30
0.0
 10
124.9190115722316
 20
-116.2184659879267
 30
0.0
  0
SPLINE
  5
7F
330
70
100
AcDbEntity
  8
Layer 1
 62
   250
420
  2301728
370
    35
100
AcDbSpline
210
0.0
220
0.0
230
1.0
 70
     9
 71
     3
 72
    17
 73
    13
 74
     0
 42
0.0000000001
 43
0.0000000001
 40
0.0
 40
0.0
 40
0.0
 40
0.0
 40
1.0
 40
1.0
 40
1.0
 40
2.0
 40
2.0
 40
2.0
 40
3.0
 40
3.0
 40
3.0
 40
4.0
 40
4.0
 40
4.0
 40
4.0
 10
93.80603126723892
 20
-85.02779877974132
 30
0.0
 10
92.11171177574595
 20
-85.23512893241301
 30
0.0
 10
90.57013920533087
 20
-84.0297115539712
 30
0.0
 10
90.36280905265886
 20
-82.33539206247822
 30
0.0
 10
90.15547889998718
 20
-80.64109410283235
 30
0.0
 10
91.36089627842931
 20
-79.09952153241729
 30
0.0
 10
93.05521576992196
 20
-78.89219137974527
 30
0.0
 10
94.74951372956784
 20
-78.68486122707358
 30
0.0
 10
96.29110783183001
 20
-79.89027860551572
 30
0.0
 10
96.4984379845017
 20
-81.58459809700836
 30
0.0
 10
96.70576813717371
 20
-83.27889605665424
 30
0.0
 10
95.50032922688478
 20
-84.82046862706964
 30
0.0
 10
93.80603126723892
 20
-85.02779877974132
 30
0.0
  0
SPLINE
  5
80
330
70
100
AcDbEntity
  8
Layer 1
 62
   250
420
  2301728
370
    35
100
AcDbSpline
210
0.0
220
0.0
230
1.0
 70
     9
 71
     3
 72
    17
 73
    13
 74
     0
 42
0.0000000001
 43
0.0000000001
 40
0.0
 40
0.0
 40
0.0
 40
0.0
 40
1.0
 40
1.0
 40
1.0
 40
2.0
 40
2.0
 40
2.0
 40
3.0
 40
3.0
 40
3.0
 40
4.0
 40
4.0
 40
4.0
 40
4.0
 10
93.19456988230031
 20
-113.8910886691726
 30
0.0
 10
92.08475390357387
 20
-114.0268900268318
 30
0.0
 10
91.07499641684714
 20
-113.2373172053064
 30
0.0
 10
90.93919505918826
 20
-112.1275227584264
 30
0.0
 10
90.80339370152875
 20
-111.0177283115471
 30
0.0
 10
91.59296652305446
 20
-110.0079708248204
 30
0.0
 10
92.70276096993411
 20
-109.8721694671608
 30
0.0
 10
93.81257694866089
 20
-109.7363681095017
 30
0.0
 10
94.82233443538762
 20
-110.5259409310277
 30
0.0
 10
94.9581357930465
 20
-111.635735377907
 30
0.0
 10
95.09393715070569
 20
-112.745529824787
 30
0.0
 10
94.30436432918032
 20
-113.7552873115137
 30
0.0
 10
93.19456988230031
 20
-113.8910886691726
 30
0.0
  0
SPLINE
  5
81
330
70
100
AcDbEntity
  8
Layer 1
 62
   250
420
  2301728
370
    35
100
AcDbSpline
210
0.0
220
0.0
230
1.0
 70
     9
 71
     3
 72
    17
 73
    13
 74
     0
 42
0.0000000001
 43
0.0000000001
 40
0.0
 40
0.0
 40
0.0
 40
0.0
 40
1.0
 40
1.0
 40
1.0
 40
2.0
 40
2.0
 40
2.0
 40
3.0
 40
3.0
 40
3.0
 40
4.0
 40
4.0
 40
4.0
 40
4.0
 10
75.64549033075225
 20
-37.35549332426573
 30
0.0
 10
74.99143895287757
 20
-37.317231232533
 30
0.0
 10
74.49222308521841
 20
-36.75600364613869
 30
0.0
 10
74.53048517695115
 20
-36.10193073641723
 30
0.0
 10
74.5687472686842
 20
-35.44787935854254
 30
0.0
 10
75.12999638692528
 20
-34.94866349088307
 30
0.0
 10
75.78406929664644
 20
-34.98692558261612
 30
0.0
 10
76.43812067452111
 20
-35.02518767434918
 30
0.0
 10
76.93731501033382
 20
-35.58643679258994
 30
0.0
 10
76.89905291860108
 20
-36.24048817046462
 30
0.0
 10
76.8607908268677
 20
-36.89456108018609
 30
0.0
 10
76.29956324047373
 20
-37.39375541599879
 30
0.0
 10
75.64549033075225
 20
-37.35549332426573
 30
0.0
  0
SPLINE
  5
82
330
70
100
AcDbEntity
  8
Layer 1
 62
   250
420
  2301728
370
    35
100
AcDbSpline
210
0.0
220
0.0
230
1.0
 70
     9
 71
     3
 72
    17
 73
    13
 74
     0
 42
0.0000000001
 43
0.0000000001
 40
0.0
 40
0.0
 40
0.0
 40
0.0
 40
1.0
 40
1.0
 40
1.0
 40
2.0
 40
2.0
 40
2.0
 40
3.0
 40
3.0
 40
3.0
 40
4.0
 40
4.0
 40
4.0
 40
4.0
 10
74.10208755336033
 20
-127.9366137714555
 30
0.0
 10
73.48052773228092
 20
-128.1438147330468
 30
0.0
 10
72.80869104896395
 20
-127.8078963913878
 30
0.0
 10
72.60151161921942
 20
-127.1863365703088
 30
0.0
 10
72.39431065762842
 20
-126.564776749229
 30
0.0
 10
72.73022899928739
 20
-125.8929400659117
 30
0.0
 10
73.35178882036648
 20
-125.6857606361675
 30
0.0
 10
73.97334864144591
 20
-125.4785596745765
 30
0.0
 10
74.6451853247635
 20
-125.8144780162352
 30
0.0
 10
74.85236475450739
 20
-126.4360378373146
 30
0.0
 10
75.05956571609839
 20
-127.057597658394
 30
0.0
 10
74.72364737444007
 20
-127.7294343417113
 30
0.0
 10
74.10208755336033
 20
-127.9366137714555
 30
0.0
  0
SPLINE
  5
83
330
70
100
AcDbEntity
  8
Layer 1
 62
   250
420
  2301728
370
    35
100
AcDbSpline
210
0.0
220
0.0
230
1.0
 70
    11
 71
     3
 72
    17
 73
    13
 74
     0
 42
0.0000000001
 43
0.0000000001
 40
0.0
 40
0.0
 40
0.0
 40
0.0
 40
1.0
 40
1.0
 40
1.0
 40
2.0
 40
2.0
 40
2.0
 40
3.0
 40
3.0
 40
3.0
 40
4.0
 40
4.0
 40
4.0
 40
4.0
 10
64.41564176856406
 20
-86.49792868253134
 30
0.0
 10
64.41564176856406
 20
-86.49792868253134
 30
0.0
 10
34.13112080038649
 20
-86.49792868253134
 30
0.0
 10
34.13112080038649
 20
-86.49792868253134
 30
0.0
 10
34.13112080038649
 20
-86.49792868253134
 30
0.0
 10
34.13112080038649
 20
-76.27133498934146
 30
0.0
 10
34.13112080038649
 20
-76.27133498934146
 30
0.0
 10
34.13112080038649
 20
-76.27133498934146
 30
0.0
 10
64.41564176856406
 20
-76.27133498934146
 30
0.0
 10
64.41564176856406
 20
-76.27133498934146
 30
0.0
 10
64.41564176856406
 20
-76.27133498934146
 30
0.0
 10
64.41564176856406
 20
-86.49792868253134
 30
0.0
 10
64.41564176856406
 20
-86.49792868253134
 30
0.0
  0
SPLINE
  5
84
330
70
100
AcDbEntity
  8
Layer 1
 62
   250
420
  2301728
370
    35
100
AcDbSpline
210
0.0
220
0.0
230
1.0
 70
     9
 71
     3
 72
    17
 73
    13
 74
     0
 42
0.0000000001
 43
0.0000000001
 40
0.0
 40
0.0
 40
0.0
 40
0.0
 40
1.0
 40
1.0
 40
1.0
 40
2.0
 40
2.0
 40
2.0
 40
3.0
 40
3.0
 40
3.0
 40
4.0
 40
4.0
 40
4.0
 40
4.0
 10
48.61910382220937
 20
-99.54986671502171
 30
0.0
 10
49.26538220339546
 20
-99.44214288556699
 30
0.0
 10
49.87658520617267
 20
-99.87874414278206
 30
0.0
 10
49.98430903562676
 20
-100.5250009921216
 30
0.0
 10
50.09201133323437
 20
-101.1712793733074
 30
0.0
 10
49.65543160786609
 20
-101.7824823760843
 30
0.0
 10
49.00917475852679
 20
-101.890206205539
 30
0.0
 10
48.36289637734102
 20
-101.9979085031463
 30
0.0
 10
47.75167184271703
 20
-101.5613287777781
 30
0.0
 10
47.64396954510941
 20
-100.915050396592
 30
0.0
 10
47.53626724750178
 20
-100.2687935472527
 30
0.0
 10
47.97284697287007
 20
-99.65756901262901
 30
0.0
 10
48.61910382220937
 20
-99.54986671502171
 30
0.0
  0
SPLINE
  5
85
330
70
100
AcDbEntity
  8
Layer 1
 62
   250
420
  2301728
370
    35
100
AcDbSpline
210
0.0
220
0.0
230
1.0
 70
    11
 71
     3
 72
    17
 73
    13
 74
     0
 42
0.0000000001
 43
0.0000000001
 40
0.0
 40
0.0
 40
0.0
 40
0.0
 40
1.0
 40
1.0
 40
1.0
 40
2.0
 40
2.0
 40
2.0
 40
3.0
 40
3.0
 40
3.0
 40
4.0
 40
4.0
 40
4.0
 40
4.0
 10
53.66582419855186
 20
-126.4584094261219
 30
0.0
 10
53.66582419855186
 20
-126.4584094261219
 30
0.0
 10
38.44485404854852
 20
-126.4584094261219
 30
0.0
 10
38.44485404854852
 20
-126.4584094261219
 30
0.0
 10
38.44485404854852
 20
-126.4584094261219
 30
0.0
 10
38.44485404854852
 20
-123.2185339725594
 30
0.0
 10
38.44485404854852
 20
-123.2185339725594
 30
0.0
 10
38.44485404854852
 20
-123.2185339725594
 30
0.0
 10
53.66582419855186
 20
-123.2185339725594
 30
0.0
 10
53.66582419855186
 20
-123.2185339725594
 30
0.0
 10
53.66582419855186
 20
-123.2185339725594
 30
0.0
 10
53.66582419855186
 20
-126.4584094261219
 30
0.0
 10
53.66582419855186
 20
-126.4584094261219
 30
0.0
  0
SPLINE
  5
86
330
70
100
AcDbEntity
  8
Layer 1
 62
   250
420
  2301728
370
    35
100
AcDbSpline
210
0.0
220
0.0
230
1.0
 70
    11
 71
     3
 72
    17
 73
    13
 74
     0
 42
0.0000000001
 43
0.0000000001
 40
0.0
 40
0.0
 40
0.0
 40
0.0
 40
1.0
 40
1.0
 40
1.0
 40
2.0
 40
2.0
 40
2.0
 40
3.0
 40
3.0
 40
3.0
 40
4.0
 40
4.0
 40
4.0
 40
4.0
 10
50.98429106391408
 20
-61.39315184012047
 30
0.0
 10
50.94602897218135
 20
-62.04722474984193
 30
0.0
 10
50.38477985394027
 20
-62.54641908565464
 30
0.0
 10
49.73072847606559
 20
-62.50815699392157
 30
0.0
 10
49.07665556634412
 20
-62.46989490218852
 30
0.0
 10
48.57746123053142
 20
-61.90864578394775
 30
0.0
 10
48.61572332226447
 20
-61.25459440607308
 30
0.0
 10
48.65398541399753
 20
-60.60052149635161
 30
0.0
 10
49.21521300039183
 20
-60.10132716053891
 30
0.0
 10
49.86928591011298
 20
-60.13958925227196
 30
0.0
 10
50.52333728798766
 20
-60.17785134400534
 30
0.0
 10
51.02255315564715
 20
-60.739078930399
 30
0.0
 10
50.98429106391408
 20
-61.39315184012047
 30
0.0
  0
SPLINE
  5
87
330
70
100
AcDbEntity
  8
Layer 1
 62
   250
420
  2301728
370
    35
100
AcDbSpline
210
0.0
220
0.0
230
1.0
 70
    11
 71
     3
 72
    17
 73
    13
 74
     0
 42
0.0000000001
 43
0.0000000001
 40
0.0
 40
0.0
 40
0.0
 40
0.0
 40
1.0
 40
1.0
 40
1.0
 40
2.0
 40
2.0
 40
2.0
 40
3.0
 40
3.0
 40
3.0
 40
4.0
 40
4.0
 40
4.0
 40
4.0
 10
40.39503647536131
 20
-36.6016849002466
 30
0.0
 10
40.39503647536131
 20
-36.6016849002466
 30
0.0
 10
55.71113432445113
 20
-36.6016849002466
 30
0.0
 10
55.71113432445113
 20
-36.6016849002466
 30
0.0
 10
55.71113432445113
 20
-36.6016849002466
 30
0.0
 10
55.71113432445113
 20
-39.45560200022756
 30
0.0
 10
55.71113432445113
 20
-39.45560200022756
 30
0.0
 10
55.71113432445113
 20
-39.45560200022756
 30
0.0
 10
40.39503647536131
 20
-39.45560200022756
 30
0.0
 10
40.39503647536131
 20
-39.45560200022756
 30
0.0
 10
40.39503647536131
 20
-39.45560200022756
 30
0.0
 10
40.39503647536131
 20
-36.6016849002466
 30
0.0
 10
40.39503647536131
 20
-36.6016849002466
 30
0.0
  0
SPLINE
  5
88
330
70
100
AcDbEntity
  8
Layer 1
 62
   250
420
  2301728
370
    35
100
AcDbSpline
210
0.0
220
0.0
230
1.0
 70
     9
 71
     3
 72
    17
 73
    13
 74
     0
 42
0.0000000001
 43
0.0000000001
 40
0.0
 40
0.0
 40
0.0
 40
0.0
 40
1.0
 40
1.0
 40
1.0
 40
2.0
 40
2.0
 40
2.0
 40
3.0
 40
3.0
 40
3.0
 40
4.0
 40
4.0
 40
4.0
 40
4.0
 10
93.98870745534429
 20
-49.62972258280742
 30
0.0
 10
95.13467540481876
 20
-49.48948566471096
 30
0.0
 10
96.17735508527642
 20
-50.30478904314212
 30
0.0
 10
96.31759200337318
 20
-51.4507785244637
 30
0.0
 10
96.45782892146932
 20
-52.59676800578527
 30
0.0
 10
95.64250401119137
 20
-53.63944768624292
 30
0.0
 10
94.49653606171658
 20
-53.77968460433937
 30
0.0
 10
93.35054658039501
 20
-53.91992152243614
 30
0.0
 10
92.30786689993736
 20
-53.10459661215788
 30
0.0
 10
92.16762998184123
 20
-51.9586071308363
 30
0.0
 10
92.02739306374445
 20
-50.81261764951505
 30
0.0
 10
92.84271797402238
 20
-49.76993796905708
 30
0.0
 10
93.98870745534429
 20
-49.62972258280742
 30
0.0
  0
SPLINE
  5
89
330
70
100
AcDbEntity
  8
Layer 1
 62
   250
420
  2301728
370
    35
100
AcDbSpline
210
0.0
220
0.0
230
1.0
 70
    11
 71
     3
 72
    68
 73
    64
 74
     0
 42
0.0000000001
 43
0.0000000001
 40
0.0
 40
0.0
 40
0.0
 40
0.0
 40
1.0
 40
1.0
 40
1.0
 40
2.0
 40
2.0
 40
2.0
 40
3.0
 40
3.0
 40
3.0
 40
4.0
 40
4.0
 40
4.0
 40
5.0
 40
5.0
 40
5.0
 40
6.0
 40
6.0
 40
6.0
 40
7.0
 40
7.0
 40
7.0
 40
8.0
 40
8.0
 40
8.0
 40
9.0
 40
9.0
 40
9.0
 40
10.0
 40
10.0
 40
10.0
 40
11.0
 40
11.0
 40
11.0
 40
12.0
 40
12.0
 40
12.0
 40
13.0
 40
13.0
 40
13.0
 40
14.0
 40
14.0
 40
14.0
 40
15.0
 40
15.0
 40
15.0
 40
16.0
 40
16.0
 40
16.0
 40
17.0
 40
17.0
 40
17.0
 40
18.0
 40
18.0
 40
18.0
 40
19.0
 40
19.0
 40
19.0
 40
20.0
 40
20.0
 40
20.0
 40
21.0
 40
21.0
 40
21.0
 40
21.0
 10
179.821538922601
 20
-14.05164014676921
 30
0.0
 10
179.821538922601
 20
-14.05164014676921
 30
0.0
 10
177.6335157162253
 20
-13.76625704950982
 30
0.0
 10
177.6335157162253
 20
-13.76625704950982
 30
0.0
 10
177.6335157162253
 20
-13.76625704950982
 30
0.0
 10
174.5893216862246
 20
-17.09583417676988
 30
0.0
 10
174.5893216862246
 20
-17.09583417676988
 30
0.0
 10
174.5893216862246
 20
-17.09583417676988
 30
0.0
 10
173.5309883531559
 20
-31.98781923977866
 30
0.0
 10
173.5309883531559
 20
-31.98781923977866
 30
0.0
 10
173.5309883531559
 20
-31.98781923977866
 30
0.0
 10
103.4193764322072
 20
-30.65598838887463
 30
0.0
 10
103.4193764322072
 20
-30.65598838887463
 30
0.0
 10
103.4193764322072
 20
-30.65598838887463
 30
0.0
 10
103.8950364594863
 20
-6.357923718028574
 30
0.0
 10
103.8950364594863
 20
-6.357923718028574
 30
0.0
 10
103.8950364594863
 20
-6.357923718028574
 30
0.0
 10
95.59089217445297
 20
-5.299590384959825
 30
0.0
 10
95.59089217445297
 20
-5.299590384959825
 30
0.0
 10
95.59089217445297
 20
-5.299590384959825
 30
0.0
 10
28.61860198259144
 20
-33.97367993671057
 30
0.0
 10
28.61860198259144
 20
-33.97367993671057
 30
0.0
 10
28.61860198259144
 20
-33.97367993671057
 30
0.0
 10
24.36545935127626
 20
-48.25523714342697
 30
0.0
 10
24.36545935127626
 20
-48.25523714342697
 30
0.0
 10
24.36545935127626
 20
-48.25523714342697
 30
0.0
 10
23.41413929671808
 20
-114.0978374619812
 30
0.0
 10
23.41413929671808
 20
-114.0978374619812
 30
0.0
 10
23.41413929671808
 20
-114.0978374619812
 30
0.0
 10
25.98267329943967
 20
-127.3210613356285
 30
0.0
 10
25.98267329943967
 20
-127.3210613356285
 30
0.0
 10
25.98267329943967
 20
-127.3210613356285
 30
0.0
 10
93.43062351858028
 20
-159.6775273241757
 30
0.0
 10
93.43062351858028
 20
-159.6775273241757
 30
0.0
 10
93.43062351858028
 20
-159.6775273241757
 30
0.0
 10
101.136225526745
 20
-158.0602918441655
 30
0.0
 10
101.136225526745
 20
-158.0602918441655
 30
0.0
 10
101.136225526745
 20
-158.0602918441655
 30
0.0
 10
101.6118855540241
 20
-134.6461525474474
 30
0.0
 10
101.6118855540241
 20
-134.6461525474474
 30
0.0
 10
101.6118855540241
 20
-134.6461525474474
 30
0.0
 10
171.4381143777134
 20
-136.358515726544
 30
0.0
 10
171.4381143777134
 20
-136.358515726544
 30
0.0
 10
171.4381143777134
 20
-136.358515726544
 30
0.0
 10
171.4381143777134
 20
-149.6649817198537
 30
0.0
 10
171.4381143777134
 20
-149.6649817198537
 30
0.0
 10
171.4381143777134
 20
-149.6649817198537
 30
0.0
 10
173.3407329549829
 20
-151.7578556952962
 30
0.0
 10
173.3407329549829
 20
-151.7578556952962
 30
0.0
 10
173.3407329549829
 20
-151.7578556952962
 30
0.0
 10
176.4800546840701
 20
-151.7578556952962
 30
0.0
 10
176.4800546840701
 20
-151.7578556952962
 30
0.0
 10
176.4800546840701
 20
-151.7578556952962
 30
0.0
 10
183.139230470437
 20
-140.9129104261975
 30
0.0
 10
183.139230470437
 20
-140.9129104261975
 30
0.0
 10
183.139230470437
 20
-140.9129104261975
 30
0.0
 10
190.274066284083
 20
-124.3601094252902
 30
0.0
 10
190.274066284083
 20
-124.3601094252902
 30
0.0
 10
190.274066284083
 20
-124.3601094252902
 30
0.0
 10
191.3205140377276
 20
-39.78857047887697
 30
0.0
 10
191.3205140377276
 20
-39.78857047887697
 30
0.0
 10
191.3205140377276
 20
-39.78857047887697
 30
0.0
 10
179.821538922601
 20
-14.05164014676921
 30
0.0
 10
179.821538922601
 20
-14.05164014676921
 30
0.0
  0
SPLINE
  5
8A
330
70
100
AcDbEntity
  8
Layer 1
 62
   250
420
  2301728
370
    35
100
AcDbSpline
210
0.0
220
0.0
230
1.0
 70
    11
 71
     3
 72
    17
 73
    13
 74
     0
 42
0.0000000001
 43
0.0000000001
 40
0.0
 40
0.0
 40
0.0
 40
0.0
 40
1.0
 40
1.0
 40
1.0
 40
2.0
 40
2.0
 40
2.0
 40
3.0
 40
3.0
 40
3.0
 40
4.0
 40
4.0
 40
4.0
 40
4.0
 10
185.3985886852042
 20
-192.1449684510414
 30
0.0
 10
184.8337868122442
 20
-192.1449684510414
 30
0.0
 10
184.3759336222545
 20
-191.6871152610517
 30
0.0
 10
184.3759336222545
 20
-191.1223133880918
 30
0.0
 10
184.3759336222545
 20
-190.5575115151319
 30
0.0
 10
184.8337868122442
 20
-190.0996583251422
 30
0.0
 10
185.3985886852042
 20
-190.0996583251422
 30
0.0
 10
185.9633905581641
 20
-190.0996583251422
 30
0.0
 10
186.4212652800006
 20
-190.5575115151319
 30
0.0
 10
186.4212652800006
 20
-191.1223133880918
 30
0.0
 10
186.4212652800006
 20
-191.6871152610517
 30
0.0
 10
185.9633905581641
 20
-192.1449684510414
 30
0.0
 10
185.3985886852042
 20
-192.1449684510414
 30
0.0
  0
SPLINE
  5
8B
330
70
100
AcDbEntity
  8
Layer 1
 62
   250
420
  2301728
370
    35
100
AcDbSpline
210
0.0
220
0.0
230
1.0
 70
    11
 71
     3
 72
    17
 73
    13
 74
     0
 42
0.0000000001
 43
0.0000000001
 40
0.0
 40
0.0
 40
0.0
 40
0.0
 40
1.0
 40
1.0
 40
1.0
 40
2.0
 40
2.0
 40
2.0
 40
3.0
 40
3.0
 40
3.0
 40
4.0
 40
4.0
 40
4.0
 40
4.0
 10
183.4657393950515
 20
-208.5381969354414
 30
0.0
 10
182.6921647356854
 20
-208.5381969354414
 30
0.0
 10
182.0650496981361
 20
-207.9111034297388
 30
0.0
 10
182.0650496981361
 20
-207.137507238526
 30
0.0
 10
182.0650496981361
 20
-206.3639325791599
 30
0.0
 10
182.6921647356854
 20
-205.7368175416105
 30
0.0
 10
183.4657393950515
 20
-205.7368175416105
 30
0.0
 10
184.2393140544176
 20
-205.7368175416105
 30
0.0
 10
184.866429091967
 20
-206.3639325791599
 30
0.0
 10
184.866429091967
 20
-207.137507238526
 30
0.0
 10
184.866429091967
 20
-207.9111034297388
 30
0.0
 10
184.2393140544176
 20
-208.5381969354414
 30
0.0
 10
183.4657393950515
 20
-208.5381969354414
 30
0.0
  0
SPLINE
  5
8C
330
70
100
AcDbEntity
  8
Layer 1
 62
   250
420
  2301728
370
    35
100
AcDbSpline
210
0.0
220
0.0
230
1.0
 70
    11
 71
     3
 72
    17
 73
    13
 74
     0
 42
0.0000000001
 43
0.0000000001
 40
0.0
 40
0.0
 40
0.0
 40
0.0
 40
1.0
 40
1.0
 40
1.0
 40
2.0
 40
2.0
 40
2.0
 40
3.0
 40
3.0
 40
3.0
 40
4.0
 40
4.0
 40
4.0
 40
4.0
 10
171.3905505281701
 20
-167.8231326213472
 30
0.0
 10
170.7863453755977
 20
-167.8231326213472
 30
0.0
 10
170.2965389249823
 20
-167.3333261707317
 30
0.0
 10
170.2965389249823
 20
-166.7291210181593
 30
0.0
 10
170.2965389249823
 20
-166.1249158655868
 30
0.0
 10
170.7863453755977
 20
-165.6351094149714
 30
0.0
 10
171.3905505281701
 20
-165.6351094149714
 30
0.0
 10
171.9947556807426
 20
-165.6351094149714
 30
0.0
 10
172.4845405995112
 20
-166.1249158655868
 30
0.0
 10
172.4845405995112
 20
-166.7291210181593
 30
0.0
 10
172.4845405995112
 20
-167.3333261707317
 30
0.0
 10
171.9947556807426
 20
-167.8231326213472
 30
0.0
 10
171.3905505281701
 20
-167.8231326213472
 30
0.0
  0
SPLINE
  5
8D
330
70
100
AcDbEntity
  8
Layer 1
 62
   250
420
  2301728
370
    35
100
AcDbSpline
210
0.0
220
0.0
230
1.0
 70
    11
 71
     3
 72
    17
 73
    13
 74
     0
 42
0.0000000001
 43
0.0000000001
 40
0.0
 40
0.0
 40
0.0
 40
0.0
 40
1.0
 40
1.0
 40
1.0
 40
2.0
 40
2.0
 40
2.0
 40
3.0
 40
3.0
 40
3.0
 40
4.0
 40
4.0
 40
4.0
 40
4.0
 10
58.80289220399503
 20
-189.4297595080353
 30
0.0
 10
58.80289220399503
 20
-189.4297595080353
 30
0.0
 10
55.75869817399436
 20
-189.4297595080353
 30
0.0
 10
55.75869817399436
 20
-189.4297595080353
 30
0.0
 10
55.75869817399436
 20
-189.4297595080353
 30
0.0
 10
55.75869817399436
 20
-174.6844493853111
 30
0.0
 10
55.75869817399436
 20
-174.6844493853111
 30
0.0
 10
55.75869817399436
 20
-174.6844493853111
 30
0.0
 10
58.80289220399503
 20
-174.6844493853111
 30
0.0
 10
58.80289220399503
 20
-174.6844493853111
 30
0.0
 10
58.80289220399503
 20
-174.6844493853111
 30
0.0
 10
58.80289220399503
 20
-189.4297595080353
 30
0.0
 10
58.80289220399503
 20
-189.4297595080353
 30
0.0
  0
SPLINE
  5
8E
330
70
100
AcDbEntity
  8
Layer 1
 62
   250
420
  2301728
370
    35
100
AcDbSpline
210
0.0
220
0.0
230
1.0
 70
    11
 71
     3
 72
    71
 73
    67
 74
     0
 42
0.0000000001
 43
0.0000000001
 40
0.0
 40
0.0
 40
0.0
 40
0.0
 40
1.0
 40
1.0
 40
1.0
 40
2.0
 40
2.0
 40
2.0
 40
3.0
 40
3.0
 40
3.0
 40
4.0
 40
4.0
 40
4.0
 40
5.0
 40
5.0
 40
5.0
 40
6.0
 40
6.0
 40
6.0
 40
7.0
 40
7.0
 40
7.0
 40
8.0
 40
8.0
 40
8.0
 40
9.0
 40
9.0
 40
9.0
 40
10.0
 40
10.0
 40
10.0
 40
11.0
 40
11.0
 40
11.0
 40
12.0
 40
12.0
 40
12.0
 40
13.0
 40
13.0
 40
13.0
 40
14.0
 40
14.0
 40
14.0
 40
15.0
 40
15.0
 40
15.0
 40
16.0
 40
16.0
 40
16.0
 40
17.0
 40
17.0
 40
17.0
 40
18.0
 40
18.0
 40
18.0
 40
19.0
 40
19.0
 40
19.0
 40
20.0
 40
20.0
 40
20.0
 40
21.0
 40
21.0
 40
21.0
 40
22.0
 40
22.0
 40
22.0
 40
22.0
 10
186.0882968013512
 20
-170.6889353007522
 30
0.0
 10
186.0882968013512
 20
-170.6889353007522
 30
0.0
 10
186.0882968013512
 20
-166.8836981462131
 30
0.0
 10
186.0882968013512
 20
-166.8836981462131
 30
0.0
 10
186.0882968013512
 20
-166.8836981462131
 30
0.0
 10
174.2920314776943
 20
-163.1735886907604
 30
0.0
 10
174.2920314776943
 20
-163.1735886907604
 30
0.0
 10
174.2920314776943
 20
-163.1735886907604
 30
0.0
 10
168.869558843145
 20
-163.1735886907604
 30
0.0
 10
168.869558843145
 20
-163.1735886907604
 30
0.0
 10
168.869558843145
 20
-163.1735886907604
 30
0.0
 10
156.5025273249694
 20
-166.2177827207611
 30
0.0
 10
156.5025273249694
 20
-166.2177827207611
 30
0.0
 10
156.5025273249694
 20
-166.2177827207611
 30
0.0
 10
156.5025273249694
 20
-169.7376367780409
 30
0.0
 10
156.5025273249694
 20
-169.7376367780409
 30
0.0
 10
156.5025273249694
 20
-169.7376367780409
 30
0.0
 10
76.59241788856674
 20
-167.7398905016848
 30
0.0
 10
76.59241788856674
 20
-167.7398905016848
 30
0.0
 10
76.59241788856674
 20
-167.7398905016848
 30
0.0
 10
76.40216249039382
 20
-164.0297595143854
 30
0.0
 10
76.40216249039382
 20
-164.0297595143854
 30
0.0
 10
76.40216249039382
 20
-164.0297595143854
 30
0.0
 10
64.70102486582344
 20
-160.184882229919
 30
0.0
 10
64.70102486582344
 20
-160.184882229919
 30
0.0
 10
64.70102486582344
 20
-160.184882229919
 30
0.0
 10
58.13697677854333
 20
-160.184882229919
 30
0.0
 10
58.13697677854333
 20
-160.184882229919
 30
0.0
 10
58.13697677854333
 20
-160.184882229919
 30
0.0
 10
47.19690381035821
 20
-163.1735886907604
 30
0.0
 10
47.19690381035821
 20
-163.1735886907604
 30
0.0
 10
47.19690381035821
 20
-163.1735886907604
 30
0.0
 10
46.91152071309851
 20
-167.5496135716651
 30
0.0
 10
46.91152071309851
 20
-167.5496135716651
 30
0.0
 10
46.91152071309851
 20
-167.5496135716651
 30
0.0
 10
44.34298671037725
 20
-167.4544858725786
 30
0.0
 10
44.34298671037725
 20
-167.4544858725786
 30
0.0
 10
44.34298671037725
 20
-167.4544858725786
 30
0.0
 10
44.34298671037725
 20
-176.8724725916868
 30
0.0
 10
44.34298671037725
 20
-176.8724725916868
 30
0.0
 10
44.34298671037725
 20
-176.8724725916868
 30
0.0
 10
51.7632056212826
 20
-195.8986798962293
 30
0.0
 10
51.7632056212826
 20
-195.8986798962293
 30
0.0
 10
51.7632056212826
 20
-195.8986798962293
 30
0.0
 10
72.7871807340276
 20
-196.3743399235084
 30
0.0
 10
72.7871807340276
 20
-196.3743399235084
 30
0.0
 10
72.7871807340276
 20
-196.3743399235084
 30
0.0
 10
159.1661890267774
 20
-181.9144128980435
 30
0.0
 10
159.1661890267774
 20
-181.9144128980435
 30
0.0
 10
159.1661890267774
 20
-181.9144128980435
 30
0.0
 10
167.3474725940681
 20
-186.0050546816888
 30
0.0
 10
167.3474725940681
 20
-186.0050546816888
 30
0.0
 10
167.3474725940681
 20
-186.0050546816888
 30
0.0
 10
179.9999087413498
 20
-211.9758424017044
 30
0.0
 10
179.9999087413498
 20
-211.9758424017044
 30
0.0
 10
179.9999087413498
 20
-211.9758424017044
 30
0.0
 10
186.0882968013512
 20
-211.9758424017044
 30
0.0
 10
186.0882968013512
 20
-211.9758424017044
 30
0.0
 10
186.0882968013512
 20
-211.9758424017044
 30
0.0
 10
193.7939203413627
 20
-185.9099269826024
 30
0.0
 10
193.7939203413627
 20
-185.9099269826024
 30
0.0
 10
193.7939203413627
 20
-185.9099269826024
 30
0.0
 10
194.269558836795
 20
-170.6889353007522
 30
0.0
 10
194.269558836795
 20
-170.6889353007522
 30
0.0
 10
194.269558836795
 20
-170.6889353007522
 30
0.0
 10
186.0882968013512
 20
-170.6889353007522
 30
0.0
 10
186.0882968013512
 20
-170.6889353007522
 30
0.0
  0
SPLINE
  5
8F
330
70
100
AcDbEntity
  8
Layer 1
 62
   250
420
  2301728
370
    35
100
AcDbSpline
210
0.0
220
0.0
230
1.0
 70
    11
 71
     3
 72
    17
 73
    13
 74
     0
 42
0.0000000001
 43
0.0000000001
 40
0.0
 40
0.0
 40
0.0
 40
0.0
 40
1.0
 40
1.0
 40
1.0
 40
2.0
 40
2.0
 40
2.0
 40
3.0
 40
3.0
 40
3.0
 40
4.0
 40
4.0
 40
4.0
 40
4.0
 10
160.0223813822492
 20
-235.6634792162577
 30
0.0
 10
160.0223813822492
 20
-235.6634792162577
 30
0.0
 10
156.9781873522485
 20
-235.6634792162577
 30
0.0
 10
156.9781873522485
 20
-235.6634792162577
 30
0.0
 10
156.9781873522485
 20
-235.6634792162577
 30
0.0
 10
156.9781873522485
 20
-221.1084244917064
 30
0.0
 10
156.9781873522485
 20
-221.1084244917064
 30
0.0
 10
156.9781873522485
 20
-221.1084244917064
 30
0.0
 10
160.0223813822492
 20
-221.1084244917064
 30
0.0
 10
160.0223813822492
 20
-221.1084244917064
 30
0.0
 10
160.0223813822492
 20
-221.1084244917064
 30
0.0
 10
160.0223813822492
 20
-235.6634792162577
 30
0.0
 10
160.0223813822492
 20
-235.6634792162577
 30
0.0
  0
SPLINE
  5
90
330
70
100
AcDbEntity
  8
Layer 1
 62
   250
420
  2301728
370
    35
100
AcDbSpline
210
0.0
220
0.0
230
1.0
 70
     9
 71
     3
 72
    17
 73
    13
 74
     0
 42
0.0000000001
 43
0.0000000001
 40
0.0
 40
0.0
 40
0.0
 40
0.0
 40
1.0
 40
1.0
 40
1.0
 40
2.0
 40
2.0
 40
2.0
 40
3.0
 40
3.0
 40
3.0
 40
4.0
 40
4.0
 40
4.0
 40
4.0
 10
44.36675786922547
 20
-244.6533697576301
 30
0.0
 10
43.82822484934025
 20
-244.6533697576301
 30
0.0
 10
43.39166665581875
 20
-244.2168115641086
 30
0.0
 10
43.39166665581875
 20
-243.6782785442237
 30
0.0
 10
43.39166665581875
 20
-243.1397455243388
 30
0.0
 10
43.82822484934025
 20
-242.7031873308173
 30
0.0
 10
44.36675786922547
 20
-242.7031873308173
 30
0.0
 10
44.90529088911005
 20
-242.7031873308173
 30
0.0
 10
45.34184908263156
 20
-243.1397455243388
 30
0.0
 10
45.34184908263156
 20
-243.6782785442237
 30
0.0
 10
45.34184908263156
 20
-244.2168115641086
 30
0.0
 10
44.90529088911005
 20
-244.6533697576301
 30
0.0
 10
44.36675786922547
 20
-244.6533697576301
 30
0.0
  0
SPLINE
  5
91
330
70
100
AcDbEntity
  8
Layer 1
 62
   250
420
  2301728
370
    35
100
AcDbSpline
210
0.0
220
0.0
230
1.0
 70
     9
 71
     3
 72
    17
 73
    13
 74
     0
 42
0.0000000001
 43
0.0000000001
 40
0.0
 40
0.0
 40
0.0
 40
0.0
 40
1.0
 40
1.0
 40
1.0
 40
2.0
 40
2.0
 40
2.0
 40
3.0
 40
3.0
 40
3.0
 40
4.0
 40
4.0
 40
4.0
 40
4.0
 10
32.17999097231525
 20
-205.2691027657943
 30
0.0
 10
31.32623171552999
 20
-205.2691027657943
 30
0.0
 10
30.6341120325433
 20
-204.5769830828076
 30
0.0
 10
30.6341120325433
 20
-203.7232238260223
 30
0.0
 10
30.6341120325433
 20
-202.8694430373903
 30
0.0
 10
31.32623171552999
 20
-202.1773448862504
 30
0.0
 10
32.17999097231525
 20
-202.1773448862504
 30
0.0
 10
33.03377176094729
 20
-202.1773448862504
 30
0.0
 10
33.7258699120872
 20
-202.8694430373903
 30
0.0
 10
33.7258699120872
 20
-203.7232238260223
 30
0.0
 10
33.7258699120872
 20
-204.5769830828076
 30
0.0
 10
33.03377176094729
 20
-205.2691027657943
 30
0.0
 10
32.17999097231525
 20
-205.2691027657943
 30
0.0
  0
SPLINE
  5
92
330
70
100
AcDbEntity
  8
Layer 1
 62
   250
420
  2301728
370
    35
100
AcDbSpline
210
0.0
220
0.0
230
1.0
 70
     9
 71
     3
 72
    17
 73
    13
 74
     0
 42
0.0000000001
 43
0.0000000001
 40
0.0
 40
0.0
 40
0.0
 40
0.0
 40
1.0
 40
1.0
 40
1.0
 40
2.0
 40
2.0
 40
2.0
 40
3.0
 40
3.0
 40
3.0
 40
4.0
 40
4.0
 40
4.0
 40
4.0
 10
30.26753234106593
 20
-220.4900729157976
 30
0.0
 10
29.70275199995279
 20
-220.4900729157976
 30
0.0
 10
29.2448772781163
 20
-220.0322197258079
 30
0.0
 10
29.2448772781163
 20
-219.467417852848
 30
0.0
 10
29.2448772781163
 20
-218.9026159798881
 30
0.0
 10
29.70275199995279
 20
-218.4447412580516
 30
0.0
 10
30.26753234106593
 20
-218.4447412580516
 30
0.0
 10
30.83233421402586
 20
-218.4447412580516
 30
0.0
 10
31.29020893586235
 20
-218.9026159798881
 30
0.0
 10
31.29020893586235
 20
-219.467417852848
 30
0.0
 10
31.29020893586235
 20
-220.0322197258079
 30
0.0
 10
30.83233421402586
 20
-220.4900729157976
 30
0.0
 10
30.26753234106593
 20
-220.4900729157976
 30
0.0
  0
SPLINE
  5
93
330
70
100
AcDbEntity
  8
Layer 1
 62
   250
420
  2301728
370
    35
100
AcDbSpline
210
0.0
220
0.0
230
1.0
 70
    11
 71
     3
 72
    71
 73
    67
 74
     0
 42
0.0000000001
 43
0.0000000001
 40
0.0
 40
0.0
 40
0.0
 40
0.0
 40
1.0
 40
1.0
 40
1.0
 40
2.0
 40
2.0
 40
2.0
 40
3.0
 40
3.0
 40
3.0
 40
4.0
 40
4.0
 40
4.0
 40
5.0
 40
5.0
 40
5.0
 40
6.0
 40
6.0
 40
6.0
 40
7.0
 40
7.0
 40
7.0
 40
8.0
 40
8.0
 40
8.0
 40
9.0
 40
9.0
 40
9.0
 40
10.0
 40
10.0
 40
10.0
 40
11.0
 40
11.0
 40
11.0
 40
12.0
 40
12.0
 40
12.0
 40
13.0
 40
13.0
 40
13.0
 40
14.0
 40
14.0
 40
14.0
 40
15.0
 40
15.0
 40
15.0
 40
16.0
 40
16.0
 40
16.0
 40
17.0
 40
17.0
 40
17.0
 40
18.0
 40
18.0
 40
18.0
 40
19.0
 40
19.0
 40
19.0
 40
20.0
 40
20.0
 40
20.0
 40
21.0
 40
21.0
 40
21.0
 40
22.0
 40
22.0
 40
22.0
 40
22.0
 10
163.5422354395289
 20
-214.6395041035125
 30
0.0
 10
163.5422354395289
 20
-214.6395041035125
 30
0.0
 10
142.9939203540627
 20
-214.1638440762334
 30
0.0
 10
142.9939203540627
 20
-214.1638440762334
 30
0.0
 10
142.9939203540627
 20
-214.1638440762334
 30
0.0
 10
56.51976283037993
 20
-228.9091757308044
 30
0.0
 10
56.51976283037993
 20
-228.9091757308044
 30
0.0
 10
56.51976283037993
 20
-228.9091757308044
 30
0.0
 10
48.24335156400285
 20
-224.5331508498997
 30
0.0
 10
48.24335156400285
 20
-224.5331508498997
 30
0.0
 10
48.24335156400285
 20
-224.5331508498997
 30
0.0
 10
35.59091541672076
 20
-198.6574908289706
 30
0.0
 10
35.59091541672076
 20
-198.6574908289706
 30
0.0
 10
35.59091541672076
 20
-198.6574908289706
 30
0.0
 10
29.59765505580588
 20
-198.6574908289706
 30
0.0
 10
29.59765505580588
 20
-198.6574908289706
 30
0.0
 10
29.59765505580588
 20
-198.6574908289706
 30
0.0
 10
21.70177611762143
 20
-224.2953100703368
 30
0.0
 10
21.70177611762143
 20
-224.2953100703368
 30
0.0
 10
21.70177611762143
 20
-224.2953100703368
 30
0.0
 10
21.70177611762143
 20
-239.754120999903
 30
0.0
 10
21.70177611762143
 20
-239.754120999903
 30
0.0
 10
21.70177611762143
 20
-239.754120999903
 30
0.0
 10
29.78793198582559
 20
-239.8492486989895
 30
0.0
 10
29.78793198582559
 20
-239.8492486989895
 30
0.0
 10
29.78793198582559
 20
-239.8492486989895
 30
0.0
 10
29.78793198582559
 20
-243.5593581544422
 30
0.0
 10
29.78793198582559
 20
-243.5593581544422
 30
0.0
 10
29.78793198582559
 20
-243.5593581544422
 30
0.0
 10
41.6793034767221
 20
-247.2694676098949
 30
0.0
 10
41.6793034767221
 20
-247.2694676098949
 30
0.0
 10
41.6793034767221
 20
-247.2694676098949
 30
0.0
 10
47.29203150944435
 20
-247.079212211722
 30
0.0
 10
47.29203150944435
 20
-247.079212211722
 30
0.0
 10
47.29203150944435
 20
-247.079212211722
 30
0.0
 10
59.18342453218798
 20
-244.2252735798942
 30
0.0
 10
59.18342453218798
 20
-244.2252735798942
 30
0.0
 10
59.18342453218798
 20
-244.2252735798942
 30
0.0
 10
59.18342453218798
 20
-240.8005472217009
 30
0.0
 10
59.18342453218798
 20
-240.8005472217009
 30
0.0
 10
59.18342453218798
 20
-240.8005472217009
 30
0.0
 10
139.28381089861
 20
-242.7031873308173
 30
0.0
 10
139.28381089861
 20
-242.7031873308173
 30
0.0
 10
139.28381089861
 20
-242.7031873308173
 30
0.0
 10
139.474066296783
 20
-246.6035521844429
 30
0.0
 10
139.474066296783
 20
-246.6035521844429
 30
0.0
 10
139.474066296783
 20
-246.6035521844429
 30
0.0
 10
150.8897992922471
 20
-249.9331508435497
 30
0.0
 10
150.8897992922471
 20
-249.9331508435497
 30
0.0
 10
150.8897992922471
 20
-249.9331508435497
 30
0.0
 10
156.9781873522485
 20
-249.9331508435497
 30
0.0
 10
156.9781873522485
 20
-249.9331508435497
 30
0.0
 10
156.9781873522485
 20
-249.9331508435497
 30
0.0
 10
168.2987926486262
 20
-247.2694676098949
 30
0.0
 10
168.2987926486262
 20
-247.2694676098949
 30
0.0
 10
168.2987926486262
 20
-247.2694676098949
 30
0.0
 10
168.3939203477127
 20
-242.8934427289902
 30
0.0
 10
168.3939203477127
 20
-242.8934427289902
 30
0.0
 10
168.3939203477127
 20
-242.8934427289902
 30
0.0
 10
171.2478374476937
 20
-242.8934427289902
 30
0.0
 10
171.2478374476937
 20
-242.8934427289902
 30
0.0
 10
171.2478374476937
 20
-242.8934427289902
 30
0.0
 10
171.2478374476937
 20
-233.6657329399017
 30
0.0
 10
171.2478374476937
 20
-233.6657329399017
 30
0.0
 10
171.2478374476937
 20
-233.6657329399017
 30
0.0
 10
163.5422354395289
 20
-214.6395041035125
 30
0.0
 10
163.5422354395289
 20
-214.6395041035125
 30
0.0
  0
SPLINE
  5
94
330
70
100
AcDbEntity
  8
Layer 1
 62
   250
420
  2301728
370
    35
100
AcDbSpline
210
0.0
220
0.0
230
1.0
 70
    11
 71
     3
 72
    17
 73
    13
 74
     0
 42
0.0000000001
 43
0.0000000001
 40
0.0
 40
0.0
 40
0.0
 40
0.0
 40
1.0
 40
1.0
 40
1.0
 40
2.0
 40
2.0
 40
2.0
 40
3.0
 40
3.0
 40
3.0
 40
4.0
 40
4.0
 40
4.0
 40
4.0
 10
174.0542122299782
 20
-270.925409545984
 30
0.0
 10
173.3120955987618
 20
-270.925409545984
 30
0.0
 10
172.71049579965
 20
-270.3237882150254
 30
0.0
 10
172.71049579965
 20
-269.581671583809
 30
0.0
 10
172.71049579965
 20
-268.8395549525927
 30
0.0
 10
173.3120955987618
 20
-268.2379551534809
 30
0.0
 10
174.0542122299782
 20
-268.2379551534809
 30
0.0
 10
174.7963288611946
 20
-268.2379551534809
 30
0.0
 10
175.3979501921531
 20
-268.8395549525927
 30
0.0
 10
175.3979501921531
 20
-269.581671583809
 30
0.0
 10
175.3979501921531
 20
-270.3237882150254
 30
0.0
 10
174.7963288611946
 20
-270.925409545984
 30
0.0
 10
174.0542122299782
 20
-270.925409545984
 30
0.0
  0
SPLINE
  5
95
330
70
100
AcDbEntity
  8
Layer 1
 62
   250
420
  2301728
370
    35
100
AcDbSpline
210
0.0
220
0.0
230
1.0
 70
     9
 71
     3
 72
    17
 73
    13
 74
     0
 42
0.0000000001
 43
0.0000000001
 40
0.0
 40
0.0
 40
0.0
 40
0.0
 40
1.0
 40
1.0
 40
1.0
 40
2.0
 40
2.0
 40
2.0
 40
3.0
 40
3.0
 40
3.0
 40
4.0
 40
4.0
 40
4.0
 40
4.0
 10
153.2720397566039
 20
-271.3653913031439
 30
0.0
 10
152.2869147025966
 20
-271.3653913031439
 30
0.0
 10
151.488320037269
 20
-270.5667966378162
 30
0.0
 10
151.488320037269
 20
-269.581671583809
 30
0.0
 10
151.488320037269
 20
-268.5965680616486
 30
0.0
 10
152.2869147025966
 20
-267.7979733963209
 30
0.0
 10
153.2720397566039
 20
-267.7979733963209
 30
0.0
 10
154.2571432787643
 20
-267.7979733963209
 30
0.0
 10
155.055737944092
 20
-268.5965680616486
 30
0.0
 10
155.055737944092
 20
-269.581671583809
 30
0.0
 10
155.055737944092
 20
-270.5667966378162
 30
0.0
 10
154.2571432787643
 20
-271.3653913031439
 30
0.0
 10
153.2720397566039
 20
-271.3653913031439
 30
0.0
  0
SPLINE
  5
96
330
70
100
AcDbEntity
  8
Layer 1
 62
   250
420
  2301728
370
    35
100
AcDbSpline
210
0.0
220
0.0
230
1.0
 70
     9
 71
     3
 72
    17
 73
    13
 74
     0
 42
0.0000000001
 43
0.0000000001
 40
0.0
 40
0.0
 40
0.0
 40
0.0
 40
1.0
 40
1.0
 40
1.0
 40
2.0
 40
2.0
 40
2.0
 40
3.0
 40
3.0
 40
3.0
 40
4.0
 40
4.0
 40
4.0
 40
4.0
 10
136.2871807181526
 20
-271.0760248142297
 30
0.0
 10
135.3020556641454
 20
-271.0760248142297
 30
0.0
 10
134.5034609988177
 20
-270.277430148902
 30
0.0
 10
134.5034609988177
 20
-269.2923266267416
 30
0.0
 10
134.5034609988177
 20
-268.3072015727344
 30
0.0
 10
135.3020556641454
 20
-267.5086069074067
 30
0.0
 10
136.2871807181526
 20
-267.5086069074067
 30
0.0
 10
137.272284240313
 20
-267.5086069074067
 30
0.0
 10
138.0708789056407
 20
-268.3072015727344
 30
0.0
 10
138.0708789056407
 20
-269.2923266267416
 30
0.0
 10
138.0708789056407
 20
-270.277430148902
 30
0.0
 10
137.272284240313
 20
-271.0760248142297
 30
0.0
 10
136.2871807181526
 20
-271.0760248142297
 30
0.0
  0
SPLINE
  5
97
330
70
100
AcDbEntity
  8
Layer 1
 62
   250
420
  2301728
370
    35
100
AcDbSpline
210
0.0
220
0.0
230
1.0
 70
    11
 71
     3
 72
    17
 73
    13
 74
     0
 42
0.0000000001
 43
0.0000000001
 40
0.0
 40
0.0
 40
0.0
 40
0.0
 40
1.0
 40
1.0
 40
1.0
 40
2.0
 40
2.0
 40
2.0
 40
3.0
 40
3.0
 40
3.0
 40
4.0
 40
4.0
 40
4.0
 40
4.0
 10
130.0441939982507
 20
-270.1960612999098
 30
0.0
 10
129.3020773670343
 20
-270.1960612999098
 30
0.0
 10
128.7004775679225
 20
-269.594461500798
 30
0.0
 10
128.7004775679225
 20
-268.8523448695816
 30
0.0
 10
128.7004775679225
 20
-268.1102067065185
 30
0.0
 10
129.3020773670343
 20
-267.5086069074067
 30
0.0
 10
130.0441939982507
 20
-267.5086069074067
 30
0.0
 10
130.786310629467
 20
-267.5086069074067
 30
0.0
 10
131.3879319604256
 20
-268.1102067065185
 30
0.0
 10
131.3879319604256
 20
-268.8523448695816
 30
0.0
 10
131.3879319604256
 20
-269.594461500798
 30
0.0
 10
130.786310629467
 20
-270.1960612999098
 30
0.0
 10
130.0441939982507
 20
-270.1960612999098
 30
0.0
  0
SPLINE
  5
98
330
70
100
AcDbEntity
  8
Layer 1
 62
   250
420
  2301728
370
    35
100
AcDbSpline
210
0.0
220
0.0
230
1.0
 70
    11
 71
     3
 72
    41
 73
    37
 74
     0
 42
0.0000000001
 43
0.0000000001
 40
0.0
 40
0.0
 40
0.0
 40
0.0
 40
1.0
 40
1.0
 40
1.0
 40
2.0
 40
2.0
 40
2.0
 40
3.0
 40
3.0
 40
3.0
 40
4.0
 40
4.0
 40
4.0
 40
5.0
 40
5.0
 40
5.0
 40
6.0
 40
6.0
 40
6.0
 40
7.0
 40
7.0
 40
7.0
 40
8.0
 40
8.0
 40
8.0
 40
9.0
 40
9.0
 40
9.0
 40
10.0
 40
10.0
 40
10.0
 40
11.0
 40
11.0
 40
11.0
 40
12.0
 40
12.0
 40
12.0
 40
12.0
 10
170.2014112258958
 20
-262.0147992644659
 30
0.0
 10
170.2014112258958
 20
-262.0147992644659
 30
0.0
 10
170.2014112258958
 20
-259.8267760580902
 30
0.0
 10
170.2014112258958
 20
-259.8267760580902
 30
0.0
 10
170.2014112258958
 20
-259.8267760580902
 30
0.0
 10
133.9564659631471
 20
-259.2559883317246
 30
0.0
 10
133.9564659631471
 20
-259.2559883317246
 30
0.0
 10
133.9564659631471
 20
-259.2559883317246
 30
0.0
 10
133.9564659631471
 20
-261.3488623071671
 30
0.0
 10
133.9564659631471
 20
-261.3488623071671
 30
0.0
 10
133.9564659631471
 20
-261.3488623071671
 30
0.0
 10
126.2508424231356
 20
-261.6342669362733
 30
0.0
 10
126.2508424231356
 20
-261.6342669362733
 30
0.0
 10
126.2508424231356
 20
-261.6342669362733
 30
0.0
 10
126.2508424231356
 20
-276.3795770589975
 30
0.0
 10
126.2508424231356
 20
-276.3795770589975
 30
0.0
 10
126.2508424231356
 20
-276.3795770589975
 30
0.0
 10
133.9564659631471
 20
-276.5698539890173
 30
0.0
 10
133.9564659631471
 20
-276.5698539890173
 30
0.0
 10
133.9564659631471
 20
-276.5698539890173
 30
0.0
 10
133.9564659631471
 20
-278.7578556635462
 30
0.0
 10
133.9564659631471
 20
-278.7578556635462
 30
0.0
 10
133.9564659631471
 20
-278.7578556635462
 30
0.0
 10
168.2987926486262
 20
-279.3286433899118
 30
0.0
 10
168.2987926486262
 20
-279.3286433899118
 30
0.0
 10
168.2987926486262
 20
-279.3286433899118
 30
0.0
 10
168.4890480467992
 20
-275.808789332632
 30
0.0
 10
168.4890480467992
 20
-275.808789332632
 30
0.0
 10
168.4890480467992
 20
-275.808789332632
 30
0.0
 10
173.7212652831756
 20
-275.808789332632
 30
0.0
 10
176.0995223558774
 20
-275.808789332632
 30
0.0
 10
178.4778009604261
 20
-275.808789332632
 30
0.0
 10
178.4778009604261
 20
-262.0147992644659
 30
0.0
 10
178.4778009604261
 20
-262.0147992644659
 30
0.0
 10
178.4778009604261
 20
-262.0147992644659
 30
0.0
 10
170.2014112258958
 20
-262.0147992644659
 30
0.0
 10
170.2014112258958
 20
-262.0147992644659
 30
0.0
  0
SPLINE
  5
99
330
70
100
AcDbEntity
  8
Layer 1
 62
   250
420
  2301728
370
    35
100
AcDbSpline
210
0.0
220
0.0
230
1.0
 70
     9
 71
     3
 72
    17
 73
    13
 74
     0
 42
0.0000000001
 43
0.0000000001
 40
0.0
 40
0.0
 40
0.0
 40
0.0
 40
1.0
 40
1.0
 40
1.0
 40
2.0
 40
2.0
 40
2.0
 40
3.0
 40
3.0
 40
3.0
 40
4.0
 40
4.0
 40
4.0
 40
4.0
 10
83.18628758364136
 20
-270.9104449124699
 30
0.0
 10
82.46753300618465
 20
-270.9104449124699
 30
0.0
 10
81.88488123224178
 20
-270.327793138527
 30
0.0
 10
81.88488123224178
 20
-269.60903856107
 30
0.0
 10
81.88488123224178
 20
-268.8903055154597
 30
0.0
 10
82.46753300618465
 20
-268.3076537415169
 30
0.0
 10
83.18628758364136
 20
-268.3076537415169
 30
0.0
 10
83.90502062925161
 20
-268.3076537415169
 30
0.0
 10
84.48767240319449
 20
-268.8903055154597
 30
0.0
 10
84.48767240319449
 20
-269.60903856107
 30
0.0
 10
84.48767240319449
 20
-270.327793138527
 30
0.0
 10
83.90502062925161
 20
-270.9104449124699
 30
0.0
 10
83.18628758364136
 20
-270.9104449124699
 30
0.0
  0
SPLINE
  5
9A
330
70
100
AcDbEntity
  8
Layer 1
 62
   250
420
  2301728
370
    35
100
AcDbSpline
210
0.0
220
0.0
230
1.0
 70
     9
 71
     3
 72
    17
 73
    13
 74
     0
 42
0.0000000001
 43
0.0000000001
 40
0.0
 40
0.0
 40
0.0
 40
0.0
 40
1.0
 40
1.0
 40
1.0
 40
2.0
 40
2.0
 40
2.0
 40
3.0
 40
3.0
 40
3.0
 40
4.0
 40
4.0
 40
4.0
 40
4.0
 10
62.48167282237904
 20
-271.903709004561
 30
0.0
 10
61.4456034188834
 20
-271.903709004561
 30
0.0
 10
60.60568913957948
 20
-271.0637947252571
 30
0.0
 10
60.60568913957948
 20
-270.0277253217617
 30
0.0
 10
60.60568913957948
 20
-268.9916343864197
 30
0.0
 10
61.4456034188834
 20
-268.1517201071157
 30
0.0
 10
62.48167282237904
 20
-268.1517201071157
 30
0.0
 10
63.51776375772082
 20
-268.1517201071157
 30
0.0
 10
64.35767803702472
 20
-268.9916343864197
 30
0.0
 10
64.35767803702472
 20
-270.0277253217617
 30
0.0
 10
64.35767803702472
 20
-271.0637947252571
 30
0.0
 10
63.51776375772082
 20
-271.903709004561
 30
0.0
 10
62.48167282237904
 20
-271.903709004561
 30
0.0
  0
SPLINE
  5
9B
330
70
100
AcDbEntity
  8
Layer 1
 62
   250
420
  2301728
370
    35
100
AcDbSpline
210
0.0
220
0.0
230
1.0
 70
     9
 71
     3
 72
    17
 73
    13
 74
     0
 42
0.0000000001
 43
0.0000000001
 40
0.0
 40
0.0
 40
0.0
 40
0.0
 40
1.0
 40
1.0
 40
1.0
 40
2.0
 40
2.0
 40
2.0
 40
3.0
 40
3.0
 40
3.0
 40
4.0
 40
4.0
 40
4.0
 40
4.0
 10
45.56814879231922
 20
-271.4664617919424
 30
0.0
 10
44.5423285478922
 20
-271.4664617919424
 30
0.0
 10
43.71074709329323
 20
-270.6348588054967
 30
0.0
 10
43.71074709329323
 20
-269.60903856107
 30
0.0
 10
43.71074709329323
 20
-268.5832183166433
 30
0.0
 10
44.5423285478922
 20
-267.7516368620443
 30
0.0
 10
45.56814879231922
 20
-267.7516368620443
 30
0.0
 10
46.59396903674561
 20
-267.7516368620443
 30
0.0
 10
47.42557202319167
 20
-268.5832183166433
 30
0.0
 10
47.42557202319167
 20
-269.60903856107
 30
0.0
 10
47.42557202319167
 20
-270.6348588054967
 30
0.0
 10
46.59396903674561
 20
-271.4664617919424
 30
0.0
 10
45.56814879231922
 20
-271.4664617919424
 30
0.0
  0
SPLINE
  5
9C
330
70
100
AcDbEntity
  8
Layer 1
 62
   250
420
  2301728
370
    35
100
AcDbSpline
210
0.0
220
0.0
230
1.0
 70
    11
 71
     3
 72
    17
 73
    13
 74
     0
 42
0.0000000001
 43
0.0000000001
 40
0.0
 40
0.0
 40
0.0
 40
0.0
 40
1.0
 40
1.0
 40
1.0
 40
2.0
 40
2.0
 40
2.0
 40
3.0
 40
3.0
 40
3.0
 40
4.0
 40
4.0
 40
4.0
 40
4.0
 10
39.52588194812667
 20
-270.7839668444677
 30
0.0
 10
38.80714890251642
 20
-270.7839668444677
 30
0.0
 10
38.22449712857354
 20
-270.2013150705247
 30
0.0
 10
38.22449712857354
 20
-269.4825820249145
 30
0.0
 10
38.22449712857354
 20
-268.7638274474575
 30
0.0
 10
38.80714890251642
 20
-268.1811756735146
 30
0.0
 10
39.52588194812667
 20
-268.1811756735146
 30
0.0
 10
40.24461499373691
 20
-268.1811756735146
 30
0.0
 10
40.82728829952625
 20
-268.7638274474575
 30
0.0
 10
40.82728829952625
 20
-269.4825820249145
 30
0.0
 10
40.82728829952625
 20
-270.2013150705247
 30
0.0
 10
40.24461499373691
 20
-270.7839668444677
 30
0.0
 10
39.52588194812667
 20
-270.7839668444677
 30
0.0
  0
SPLINE
  5
9D
330
70
100
AcDbEntity
  8
Layer 1
 62
   250
420
  2301728
370
    35
100
AcDbSpline
210
0.0
220
0.0
230
1.0
 70
    11
 71
     3
 72
    44
 73
    40
 74
     0
 42
0.0000000001
 43
0.0000000001
 40
0.0
 40
0.0
 40
0.0
 40
0.0
 40
1.0
 40
1.0
 40
1.0
 40
2.0
 40
2.0
 40
2.0
 40
3.0
 40
3.0
 40
3.0
 40
4.0
 40
4.0
 40
4.0
 40
5.0
 40
5.0
 40
5.0
 40
6.0
 40
6.0
 40
6.0
 40
7.0
 40
7.0
 40
7.0
 40
8.0
 40
8.0
 40
8.0
 40
9.0
 40
9.0
 40
9.0
 40
10.0
 40
10.0
 40
10.0
 40
11.0
 40
11.0
 40
11.0
 40
12.0
 40
12.0
 40
12.0
 40
13.0
 40
13.0
 40
13.0
 40
13.0
 10
85.82012767765553
 20
-262.3001823617253
 30
0.0
 10
85.82012767765553
 20
-262.3001823617253
 30
0.0
 10
79.54148421948095
 20
-262.3001823617253
 30
0.0
 10
79.54148421948095
 20
-262.3001823617253
 30
0.0
 10
79.54148421948095
 20
-262.3001823617253
 30
0.0
 10
79.54148421948095
 20
-260.3024360853693
 30
0.0
 10
79.54148421948095
 20
-260.3024360853693
 30
0.0
 10
79.54148421948095
 20
-260.3024360853693
 30
0.0
 10
43.39166665581875
 20
-259.6365206599173
 30
0.0
 10
43.39166665581875
 20
-259.6365206599173
 30
0.0
 10
43.39166665581875
 20
-259.6365206599173
 30
0.0
 10
43.39166665581875
 20
-261.8245223344462
 30
0.0
 10
43.39166665581875
 20
-261.8245223344462
 30
0.0
 10
43.39166665581875
 20
-261.8245223344462
 30
0.0
 10
35.30553231946138
 20
-261.7293946353598
 30
0.0
 10
35.30553231946138
 20
-261.7293946353598
 30
0.0
 10
35.30553231946138
 20
-261.7293946353598
 30
0.0
 10
35.30553231946138
 20
-276.474704758084
 30
0.0
 10
35.30553231946138
 20
-276.474704758084
 30
0.0
 10
35.30553231946138
 20
-276.474704758084
 30
0.0
 10
43.39166665581875
 20
-276.6649816881038
 30
0.0
 10
43.39166665581875
 20
-276.6649816881038
 30
0.0
 10
43.39166665581875
 20
-276.6649816881038
 30
0.0
 10
43.39166665581875
 20
-279.3286433899118
 30
0.0
 10
43.39166665581875
 20
-279.3286433899118
 30
0.0
 10
43.39166665581875
 20
-279.3286433899118
 30
0.0
 10
77.73399334129784
 20
-279.3286433899118
 30
0.0
 10
77.73399334129784
 20
-279.3286433899118
 30
0.0
 10
77.73399334129784
 20
-279.3286433899118
 30
0.0
 10
77.8291210403843
 20
-276.5698539890173
 30
0.0
 10
77.8291210403843
 20
-276.5698539890173
 30
0.0
 10
77.8291210403843
 20
-276.5698539890173
 30
0.0
 10
85.24933995128966
 20
-276.5698539890173
 30
0.0
 10
85.24933995128966
 20
-276.5698539890173
 30
0.0
 10
85.24933995128966
 20
-276.5698539890173
 30
0.0
 10
87.62761855583832
 20
-265.8200364190051
 30
0.0
 10
87.62761855583832
 20
-263.7271409117158
 30
0.0
 10
87.62761855583832
 20
-261.6342669362733
 30
0.0
 10
85.82012767765553
 20
-262.3001823617253
 30
0.0
 10
85.82012767765553
 20
-262.3001823617253
 30
0.0
  0
ENDSEC
  0
SECTION
  2
OBJECTS
  0
DICTIONARY
  5
C
330
0
100
AcDbDictionary
281
     1
  3
ACAD_COLOR
350
63
  3
ACAD_DETAILVIEWSTYLE
350
6A
  3
ACAD_GROUP
350
D
  3
ACAD_LAYOUT
350
62
  3
ACAD_MATERIAL
350
10
  3
ACAD_MLEADERSTYLE
350
66
  3
ACAD_MLINESTYLE
350
5F
  3
ACAD_PLOTSETTINGS
350
61
  3
ACAD_PLOTSTYLENAME
350
E
  3
ACAD_SCALELIST
350
42
  3
ACAD_SECTIONVIEWSTYLE
350
68
  3
ACAD_TABLESTYLE
350
64
  3
ACAD_VISUALSTYLE
350
29
  3
ACDB_RECOMPOSE_DATA
350
A6
  3
AcDbVariableDictionary
350
9E
  0
DICTIONARY
  5
63
102
{ACAD_REACTORS
330
C
102
}
330
C
100
AcDbDictionary
281
     1
  0
DICTIONARY
  5
6A
102
{ACAD_REACTORS
330
C
102
}
330
C
100
AcDbDictionary
281
     1
  3
Imperial24
350
6B
  0
DICTIONARY
  5
D
102
{ACAD_REACTORS
330
C
102
}
330
C
100
AcDbDictionary
281
     1
  0
DICTIONARY
  5
62
102
{ACAD_REACTORS
330
C
102
}
330
C
100
AcDbDictionary
281
     1
  3
Layout1
350
6F
  3
Layout2
350
77
  3
Model
350
73
  0
DICTIONARY
  5
10
102
{ACAD_REACTORS
330
C
102
}
330
C
100
AcDbDictionary
281
     1
  3
ByBlock
350
19
  3
ByLayer
350
11
  3
Global
350
21
  0
DICTIONARY
  5
66
102
{ACAD_REACTORS
330
C
102
}
330
C
100
AcDbDictionary
281
     1
  3
Standard
350
67
  0
DICTIONARY
  5
5F
102
{ACAD_REACTORS
330
C
102
}
330
C
100
AcDbDictionary
281
     1
  3
Standard
350
60
  0
DICTIONARY
  5
61
102
{ACAD_REACTORS
330
C
102
}
330
C
100
AcDbDictionary
281
     1
  0
ACDBDICTIONARYWDFLT
  5
E
102
{ACAD_REACTORS
330
C
102
}
330
C
100
AcDbDictionary
281
     1
  3
Normal
350
F
100
AcDbDictionaryWithDefault
340
F
  0
DICTIONARY
  5
42
102
{ACAD_REACTORS
330
C
102
}
330
C
100
AcDbDictionary
281
     1
  3
A0
350
43
  3
A1
350
44
  3
A2
350
45
  3
A3
350
46
  3
A4
350
47
  3
A5
350
48
  3
A6
350
49
  3
A7
350
4A
  3
A8
350
4B
  3
A9
350
4C
  3
B0
350
4D
  3
B1
350
4E
  3
B2
350
4F
  3
B3
350
50
  3
B4
350
51
  3
B5
350
52
  3
B6
350
53
  0
DICTIONARY
  5
68
102
{ACAD_REACTORS
330
C
102
}
330
C
100
AcDbDictionary
281
     1
  3
Imperial24
350
69
  0
DICTIONARY
  5
64
102
{ACAD_REACTORS
330
C
102
}
330
C
100
AcDbDictionary
281
     1
  3
Standard
350
65
  0
DICTIONARY
  5
29
102
{ACAD_REACTORS
330
C
102
}
330
C
100
AcDbDictionary
281
     1
  3
2dWireframe
350
2F
  3
Basic
350
2E
  3
Brighten
350
35
  3
ColorChange
350
39
  3
Conceptual
350
32
  3
Dim
350
34
  3
EdgeColorOff
350
41
  3
Facepattern
350
38
  3
Flat
350
2A
  3
FlatWithEdges
350
2B
  3
Gouraud
350
2C
  3
GouraudWithEdges
350
2D
  3
Hidden
350
31
  3
JitterOff
350
3F
  3
Linepattern
350
37
  3
OverhangOff
350
40
  3
Realistic
350
33
  3
Shaded
350
3E
  3
Shaded with edges
350
3D
  3
Shades of Gray
350
3A
  3
Sketchy
350
3B
  3
Thicken
350
36
  3
Wireframe
350
30
  3
X-Ray
350
3C
  0
XRECORD
  5
A6
102
{ACAD_REACTORS
330
C
102
}
330
C
100
AcDbXrecord
280
     1
 90
        1
330
65
  0
DICTIONARY
  5
9E
102
{ACAD_REACTORS
330
C
102
}
330
C
100
AcDbDictionary
281
     1
  3
CANNOSCALE
350
A3
  3
CMLEADERSTYLE
350
A0
  3
CTABLESTYLE
350
9F
  3
CVIEWDETAILSTYLE
350
A1
  3
CVIEWSECTIONSTYLE
350
A2
  0
ACDBDETAILVIEWSTYLE
  5
6B
102
{ACAD_REACTORS
330
6A
102
}
330
6A
100
AcDbModelDocViewStyle
 70
     0
  3
Imperial24
290
     1
300
Imperial24
 90
        0
100
AcDbDetailViewStyle
 70
     0
 71
     0
 90
        3
 71
     1
340
55
 62
   256
 40
0.24
340
0
 62
   256
 40
0.24
300

 40
0.36
280
     3
 71
     2
340
5D
 90
       25
 62
   256
 71
     3
340
55
 62
   256
 40
0.24
 90
        1
 40
0.75
 90
        1
300
%<\AcVar ViewType \f "%tc1">% %<\AcVar ViewDetailId>%\PSCALE %<\AcVar ViewScale \f "%sn">%
 71
     4
340
5D
 90
       25
 62
   256
340
5D
 90
       25
 62
   256
280
     0
  0
LAYOUT
  5
6F
102
{ACAD_REACTORS
330
62
102
}
330
62
100
AcDbPlotSettings
  1

  2

  4

  6

 40
0.0
 41
0.0
 42
0.0
 43
0.0
 44
0.0
 45
0.0
 46
0.0
 47
0.0
 48
0.0
 49
0.0
140
0.0
141
0.0
142
1.0
143
1.0
 70
   688
 72
     0
 73
     0
 74
     5
  7

 75
    16
147
1.0
 76
     0
 77
     2
 78
   300
148
0.0
149
0.0
100
AcDbLayout
  1
Layout1
 70
     1
 71
     1
 10
0.0
 20
0.0
 11
12.0
 21
9.0
 12
0.0
 22
0.0
 32
0.0
 14
0.0
 24
0.0
 34
0.0
 15
0.0
 25
0.0
 35
0.0
146
0.0
 13
0.0
 23
0.0
 33
0.0
 16
1.0
 26
0.0
 36
0.0
 17
0.0
 27
1.0
 37
0.0
 76
     0
330
6C
  0
LAYOUT
  5
77
102
{ACAD_REACTORS
330
62
102
}
330
62
100
AcDbPlotSettings
  1

  2

  4

  6

 40
0.0
 41
0.0
 42
0.0
 43
0.0
 44
0.0
 45
0.0
 46
0.0
 47
0.0
 48
0.0
 49
0.0
140
0.0
141
0.0
142
1.0
143
1.0
 70
   688
 72
     0
 73
     0
 74
     5
  7

 75
    16
147
1.0
 76
     0
 77
     2
 78
   300
148
0.0
149
0.0
100
AcDbLayout
  1
Layout2
 70
     1
 71
     2
 10
0.0
 20
0.0
 11
12.0
 21
9.0
 12
0.0
 22
0.0
 32
0.0
 14
0.0
 24
0.0
 34
0.0
 15
0.0
 25
0.0
 35
0.0
146
0.0
 13
0.0
 23
0.0
 33
0.0
 16
1.0
 26
0.0
 36
0.0
 17
0.0
 27
1.0
 37
0.0
 76
     0
330
74
  0
LAYOUT
  5
73
102
{ACAD_REACTORS
330
62
102
}
330
62
100
AcDbPlotSettings
  1

  2

  4

  6

 40
0.0
 41
0.0
 42
0.0
 43
0.0
 44
0.0
 45
0.0
 46
0.0
 47
0.0
 48
0.0
 49
0.0
140
0.0
141
0.0
142
1.0
143
1.0
 70
  1712
 72
     0
 73
     0
 74
     0
  7

 75
     0
147
1.0
 76
     0
 77
     2
 78
   300
148
0.0
149
0.0
100
AcDbLayout
  1
Model
 70
     1
 71
     0
 10
0.0
 20
0.0
 11
12.0
 21
9.0
 12
0.0
 22
0.0
 32
0.0
 14
0.0
 24
0.0
 34
0.0
 15
0.0
 25
0.0
 35
0.0
146
0.0
 13
0.0
 23
0.0
 33
0.0
 16
1.0
 26
0.0
 36
0.0
 17
0.0
 27
1.0
 37
0.0
 76
     0
330
70
  0
MATERIAL
  5
19
102
{ACAD_XDICTIONARY
360
1A
102
}
102
{ACAD_REACTORS
330
10
102
}
330
10
100
AcDbMaterial
  1
ByBlock
 72
     0
 43
0.0208333333333333
 43
0.0
 43
0.0
 43
0.0
 43
0.0
 43
0.0208333333333333
 43
0.0
 43
0.0
 43
0.0
 43
0.0
 43
1.0
 43
0.0
 43
0.0
 43
0.0
 43
0.0
 43
1.0
 77
     0
 47
0.0208333333333333
 47
0.0
 47
0.0
 47
0.0
 47
0.0
 47
0.0208333333333333
 47
0.0
 47
0.0
 47
0.0
 47
0.0
 47
1.0
 47
0.0
 47
0.0
 47
0.0
 47
0.0
 47
1.0
171
     0
 49
0.0208333333333333
 49
0.0
 49
0.0
 49
0.0
 49
0.0
 49
0.0208333333333333
 49
0.0
 49
0.0
 49
0.0
 49
0.0
 49
1.0
 49
0.0
 49
0.0
 49
0.0
 49
0.0
 49
1.0
175
     0
142
0.0208333333333333
142
0.0
142
0.0
142
0.0
142
0.0
142
0.0208333333333333
142
0.0
142
0.0
142
0.0
142
0.0
142
1.0
142
0.0
142
0.0
142
0.0
142
0.0
142
1.0
179
     0
144
0.0208333333333333
144
0.0
144
0.0
144
0.0
144
0.0
144
0.0208333333333333
144
0.0
144
0.0
144
0.0
144
0.0
144
1.0
144
0.0
144
0.0
144
0.0
144
0.0
144
1.0
147
0.0208333333333333
147
0.0
147
0.0
147
0.0
147
0.0
147
0.0208333333333333
147
0.0
147
0.0
147
0.0
147
0.0
147
1.0
147
0.0
147
0.0
147
0.0
147
0.0
147
1.0
  0
MATERIAL
  5
11
102
{ACAD_XDICTIONARY
360
12
102
}
102
{ACAD_REACTORS
330
10
102
}
330
10
100
AcDbMaterial
  1
ByLayer
 72
     0
 43
0.0208333333333333
 43
0.0
 43
0.0
 43
0.0
 43
0.0
 43
0.0208333333333333
 43
0.0
 43
0.0
 43
0.0
 43
0.0
 43
1.0
 43
0.0
 43
0.0
 43
0.0
 43
0.0
 43
1.0
 77
     0
 47
0.0208333333333333
 47
0.0
 47
0.0
 47
0.0
 47
0.0
 47
0.0208333333333333
 47
0.0
 47
0.0
 47
0.0
 47
0.0
 47
1.0
 47
0.0
 47
0.0
 47
0.0
 47
0.0
 47
1.0
171
     0
 49
0.0208333333333333
 49
0.0
 49
0.0
 49
0.0
 49
0.0
 49
0.0208333333333333
 49
0.0
 49
0.0
 49
0.0
 49
0.0
 49
1.0
 49
0.0
 49
0.0
 49
0.0
 49
0.0
 49
1.0
175
     0
142
0.0208333333333333
142
0.0
142
0.0
142
0.0
142
0.0
142
0.0208333333333333
142
0.0
142
0.0
142
0.0
142
0.0
142
1.0
142
0.0
142
0.0
142
0.0
142
0.0
142
1.0
179
     0
144
0.0208333333333333
144
0.0
144
0.0
144
0.0
144
0.0
144
0.0208333333333333
144
0.0
144
0.0
144
0.0
144
0.0
144
1.0
144
0.0
144
0.0
144
0.0
144
0.0
144
1.0
147
0.0208333333333333
147
0.0
147
0.0
147
0.0
147
0.0
147
0.0208333333333333
147
0.0
147
0.0
147
0.0
147
0.0
147
1.0
147
0.0
147
0.0
147
0.0
147
0.0
147
1.0
  0
MATERIAL
  5
21
102
{ACAD_XDICTIONARY
360
22
102
}
102
{ACAD_REACTORS
330
10
102
}
330
10
100
AcDbMaterial
  1
Global
 72
     0
 43
0.0208333333333333
 43
0.0
 43
0.0
 43
0.0
 43
0.0
 43
0.0208333333333333
 43
0.0
 43
0.0
 43
0.0
 43
0.0
 43
1.0
 43
0.0
 43
0.0
 43
0.0
 43
0.0
 43
1.0
 77
     0
 47
0.0208333333333333
 47
0.0
 47
0.0
 47
0.0
 47
0.0
 47
0.0208333333333333
 47
0.0
 47
0.0
 47
0.0
 47
0.0
 47
1.0
 47
0.0
 47
0.0
 47
0.0
 47
0.0
 47
1.0
171
     0
 49
0.0208333333333333
 49
0.0
 49
0.0
 49
0.0
 49
0.0
 49
0.0208333333333333
 49
0.0
 49
0.0
 49
0.0
 49
0.0
 49
1.0
 49
0.0
 49
0.0
 49
0.0
 49
0.0
 49
1.0
175
     0
142
0.0208333333333333
142
0.0
142
0.0
142
0.0
142
0.0
142
0.0208333333333333
142
0.0
142
0.0
142
0.0
142
0.0
142
1.0
142
0.0
142
0.0
142
0.0
142
0.0
142
1.0
179
     0
144
0.0208333333333333
144
0.0
144
0.0
144
0.0
144
0.0
144
0.0208333333333333
144
0.0
144
0.0
144
0.0
144
0.0
144
1.0
144
0.0
144
0.0
144
0.0
144
0.0
144
1.0
147
0.0208333333333333
147
0.0
147
0.0
147
0.0
147
0.0
147
0.0208333333333333
147
0.0
147
0.0
147
0.0
147
0.0
147
1.0
147
0.0
147
0.0
147
0.0
147
0.0
147
1.0
  0
MLEADERSTYLE
  5
67
102
{ACAD_REACTORS
330
66
102
}
330
66
100
AcDbMLeaderStyle
179
     2
170
     2
171
     1
172
     0
 90
        2
 40
0.0
 41
0.0
173
     1
 91
-1056964608
340
5B
 92
       -2
290
     1
 42
0.09
291
     1
 43
0.36
  3
Standard
 44
0.18
300

342
55
174
     1
178
     6
175
     1
176
     0
 93
-1056964608
 45
0.18
292
     0
297
     0
 46
0.18
 94
-1056964608
 47
1.0
 49
1.0
140
1.0
293
     1
141
0.0
294
     1
177
     0
142
1.0
295
     1
296
     0
143
0.125
271
     0
272
     9
273
     9
298
     1
  0
MLINESTYLE
  5
60
102
{ACAD_REACTORS
330
5F
102
}
330
5F
100
AcDbMlineStyle
  2
STANDARD
 70
     0
  3

 62
   256
 51
90.0
 52
90.0
 71
     2
 49
0.5
 62
   256
  6
BYLAYER
 49
-0.5
 62
   256
  6
BYLAYER
  0
ACDBPLACEHOLDER
  5
F
102
{ACAD_REACTORS
330
E
102
}
330
E
  0
SCALE
  5
43
102
{ACAD_REACTORS
330
42
102
}
330
42
100
AcDbScale
 70
     0
300
1:1
140
1.0
141
1.0
290
     1
  0
SCALE
  5
44
102
{ACAD_REACTORS
330
42
102
}
330
42
100
AcDbScale
 70
     0
300
1/128" = 1'-0"
140
0.0078125
141
12.0
290
     0
  0
SCALE
  5
45
102
{ACAD_REACTORS
330
42
102
}
330
42
100
AcDbScale
 70
     0
300
1/64" = 1'-0"
140
0.015625
141
12.0
290
     0
  0
SCALE
  5
46
102
{ACAD_REACTORS
330
42
102
}
330
42
100
AcDbScale
 70
     0
300
1/32" = 1'-0"
140
0.03125
141
12.0
290
     0
  0
SCALE
  5
47
102
{ACAD_REACTORS
330
42
102
}
330
42
100
AcDbScale
 70
     0
300
1/16" = 1'-0"
140
0.0625
141
12.0
290
     0
  0
SCALE
  5
48
102
{ACAD_REACTORS
330
42
102
}
330
42
100
AcDbScale
 70
     0
300
3/32" = 1'-0"
140
0.09375
141
12.0
290
     0
  0
SCALE
  5
49
102
{ACAD_REACTORS
330
42
102
}
330
42
100
AcDbScale
 70
     0
300
1/8" = 1'-0"
140
0.125
141
12.0
290
     0
  0
SCALE
  5
4A
102
{ACAD_REACTORS
330
42
102
}
330
42
100
AcDbScale
 70
     0
300
3/16" = 1'-0"
140
0.1875
141
12.0
290
     0
  0
SCALE
  5
4B
102
{ACAD_REACTORS
330
42
102
}
330
42
100
AcDbScale
 70
     0
300
1/4" = 1'-0"
140
0.25
141
12.0
290
     0
  0
SCALE
  5
4C
102
{ACAD_REACTORS
330
42
102
}
330
42
100
AcDbScale
 70
     0
300
3/8" = 1'-0"
140
0.375
141
12.0
290
     0
  0
SCALE
  5
4D
102
{ACAD_REACTORS
330
42
102
}
330
42
100
AcDbScale
 70
     0
300
1/2" = 1'-0"
140
0.5
141
12.0
290
     0
  0
SCALE
  5
4E
102
{ACAD_REACTORS
330
42
102
}
330
42
100
AcDbScale
 70
     0
300
3/4" = 1'-0"
140
0.75
141
12.0
290
     0
  0
SCALE
  5
4F
102
{ACAD_REACTORS
330
42
102
}
330
42
100
AcDbScale
 70
     0
300
1" = 1'-0"
140
1.0
141
12.0
290
     0
  0
SCALE
  5
50
102
{ACAD_REACTORS
330
42
102
}
330
42
100
AcDbScale
 70
     0
300
1-1/2" = 1'-0"
140
1.5
141
12.0
290
     0
  0
SCALE
  5
51
102
{ACAD_REACTORS
330
42
102
}
330
42
100
AcDbScale
 70
     0
300
3" = 1'-0"
140
3.0
141
12.0
290
     0
  0
SCALE
  5
52
102
{ACAD_REACTORS
330
42
102
}
330
42
100
AcDbScale
 70
     0
300
6" = 1'-0"
140
6.0
141
12.0
290
     0
  0
SCALE
  5
53
102
{ACAD_REACTORS
330
42
102
}
330
42
100
AcDbScale
 70
     0
300
1'-0" = 1'-0"
140
12.0
141
12.0
290
     0
  0
ACDBSECTIONVIEWSTYLE
  5
69
102
{ACAD_REACTORS
330
68
102
}
330
68
100
AcDbModelDocViewStyle
 70
     0
  3
Imperial24
290
     1
300
Imperial24
 90
        0
100
AcDbSectionViewStyle
 70
     0
 71
     0
 90
       78
 71
     1
340
55
 62
   256
 40
0.24
340
0
340
0
 62
   256
 40
0.24
300
I, O, Q, S, X, Z
 40
0.48
 90
        3
 40
0.18
 90
        1
 71
     2
340
5D
 90
       25
 62
   256
340
5D
 90
       50
 62
   256
 40
0.24
 40
0.0
 40
0.24
 71
     3
340
55
 62
   256
 40
0.24
 90
        1
 40
0.75
 90
        1
300
%<\AcVar ViewType \f "%tc1">% %<\AcVar ViewSectionStartId>%-%<\AcVar ViewSectionEndId>%\PSCALE %<\AcVar ViewScale \f "%sn">%
 71
     4
 62
   256
 62
   257
300
ANSI31
 40
1.0
 90
        0
290
     0
290
     0
 90
        6
 40
0.0
 40
1.570796326794896
 40
0.2617993877991494
 40
1.308996938995747
 40
-0.2617993877991494
 40
1.832595714594046
  0
TABLESTYLE
  5
65
102
{ACAD_XDICTIONARY
360
A4
102
}
102
{ACAD_REACTORS
330
64
102
}
330
64
100
AcDbTableStyle
280
     0
  3
Standard
 70
     0
 71
     0
 40
0.06
 41
0.06
280
     0
281
     0
  7
Standard
140
0.18
170
     2
 62
     0
 63
     7
283
     0
 90
      512
 91
        0
  1

274
    -2
284
     1
 64
     0
275
    -2
285
     1
 65
     0
276
    -2
286
     1
 66
     0
277
    -2
287
     1
 67
     0
278
    -2
288
     1
 68
     0
279
    -2
289
     1
 69
     0
  7
Standard
140
0.25
170
     5
 62
     0
 63
     7
283
     0
 90
      512
 91
        0
  1

274
    -2
284
     1
 64
     0
275
    -2
285
     1
 65
     0
276
    -2
286
     1
 66
     0
277
    -2
287
     1
 67
     0
278
    -2
288
     1
 68
     0
279
    -2
289
     1
 69
     0
  7
Standard
140
0.18
170
     5
 62
     0
 63
     7
283
     0
 90
      512
 91
        0
  1

274
    -2
284
     1
 64
     0
275
    -2
285
     1
 65
     0
276
    -2
286
     1
 66
     0
277
    -2
287
     1
 67
     0
278
    -2
288
     1
 68
     0
279
    -2
289
     1
 69
     0
  0
VISUALSTYLE
  5
2F
102
{ACAD_REACTORS
330
29
102
}
330
29
100
AcDbVisualStyle
  2
2dWireframe
 70
     4
177
     3
291
     0
 70
    58
 90
        0
176
     1
 90
        2
176
     1
 90
        0
176
     1
 90
        0
176
     1
 40
0.6
176
     1
 40
30.0
176
     1
 62
     7
420
 16777215
176
     1
 90
        1
176
     1
 90
        4
176
     1
 62
     7
176
     1
 62
   257
176
     1
 90
        1
176
     1
 90
        1
176
     1
 40
1.0
176
     1
 90
        0
176
     1
 62
   257
176
     1
 40
1.0
176
     1
 90
        1
176
     1
 90
        6
176
     1
 90
        2
176
     1
 62
     7
176
     1
 90
        5
176
     1
 90
        0
176
     1
 90
        0
176
     1
290
     0
176
     1
 90
        1
176
     1
 40
0.0
176
     1
 90
        0
176
     1
290
     1
176
     1
290
     1
176
     1
290
     0
176
     1
290
     0
176
     1
290
     0
176
     1
290
     0
176
     1
290
     0
176
     1
290
     0
176
     1
290
     0
176
     1
 90
       50
176
     1
 40
0.0
176
     1
 40
1.0
176
     1
 90
        0
176
     1
 62
    18
420
        0
176
     1
 90
       50
176
     1
 90
        3
176
     1
 62
     5
420
      255
176
     1
290
     0
176
     1
 90
       50
176
     1
 90
       50
176
     1
 90
       50
176
     1
290
     0
176
     1
 90
       50
176
     1
 62
   256
176
     0
 40
1.0
176
     0
 90
        2
176
     1
  1
strokes_ogs.tif
176
     1
290
     0
176
     1
 40
1.0
176
     1
 40
1.0
176
     1
  0
VISUALSTYLE
  5
2E
102
{ACAD_REACTORS
330
29
102
}
330
29
100
AcDbVisualStyle
  2
Basic
 70
     7
177
     3
291
     1
 70
    58
 90
        1
176
     1
 90
        0
176
     1
 90
        1
176
     1
 90
        0
176
     1
 40
0.6
176
     1
 40
30.0
176
     1
 62
     7
420
 16777215
176
     1
 90
        0
176
     1
 90
        4
176
     1
 62
     7
176
     1
 62
   257
176
     1
 90
        1
176
     1
 90
        1
176
     1
 40
1.0
176
     1
 90
        8
176
     1
 62
     7
176
     1
 40
1.0
176
     1
 90
        1
176
     1
 90
        6
176
     1
 90
        2
176
     1
 62
     7
176
     1
 90
        5
176
     1
 90
        0
176
     1
 90
        0
176
     1
290
     0
176
     1
 90
        1
176
     1
 40
0.0
176
     1
 90
        0
176
     1
290
     0
176
     1
290
     1
176
     1
290
     1
176
     1
290
     0
176
     1
290
     0
176
     1
290
     0
176
     1
290
     0
176
     1
290
     0
176
     1
290
     0
176
     1
 90
       50
176
     1
 40
0.0
176
     1
 40
1.0
176
     1
 90
        0
176
     1
 62
    18
420
        0
176
     1
 90
       50
176
     1
 90
        3
176
     1
 62
     5
420
      255
176
     1
290
     0
176
     1
 90
       50
176
     1
 90
       50
176
     1
 90
       50
176
     1
290
     0
176
     1
 90
       50
176
     1
 62
   256
176
     0
 40
1.0
176
     0
 90
        2
176
     1
  1
strokes_ogs.tif
176
     1
290
     0
176
     1
 40
1.0
176
     1
 40
1.0
176
     1
  0
VISUALSTYLE
  5
35
102
{ACAD_REACTORS
330
29
102
}
330
29
100
AcDbVisualStyle
  2
Brighten
 70
    12
177
     3
291
     1
 70
    58
 90
        2
176
     1
 90
        2
176
     1
 90
        0
176
     1
 90
        0
176
     1
 40
0.6
176
     1
 40
30.0
176
     1
 62
     7
420
 16777215
176
     1
 90
        1
176
     1
 90
        4
176
     1
 62
     7
176
     1
 62
   257
176
     1
 90
        1
176
     1
 90
        1
176
     1
 40
1.0
176
     1
 90
        8
176
     1
 62
     7
176
     1
 40
1.0
176
     1
 90
        1
176
     1
 90
        6
176
     1
 90
        2
176
     1
 62
     7
176
     1
 90
        5
176
     1
 90
        0
176
     1
 90
        0
176
     1
290
     0
176
     1
 90
        1
176
     1
 40
50.0
176
     1
 90
        0
176
     1
290
     0
176
     1
290
     1
176
     1
290
     1
176
     1
290
     0
176
     1
290
     0
176
     1
290
     0
176
     1
290
     0
176
     1
290
     0
176
     1
290
     0
176
     1
 90
       50
176
     1
 40
0.0
176
     1
 40
1.0
176
     1
 90
        0
176
     1
 62
    18
420
        0
176
     1
 90
       50
176
     1
 90
        3
176
     1
 62
     5
420
      255
176
     1
290
     0
176
     1
 90
       50
176
     1
 90
       50
176
     1
 90
       50
176
     1
290
     0
176
     1
 90
       50
176
     1
 62
   256
176
     0
 40
1.0
176
     0
 90
        2
176
     1
  1
strokes_ogs.tif
176
     1
290
     0
176
     1
 40
1.0
176
     1
 40
1.0
176
     1
  0
VISUALSTYLE
  5
39
102
{ACAD_REACTORS
330
29
102
}
330
29
100
AcDbVisualStyle
  2
ColorChange
 70
    16
177
     3
291
     1
 70
    58
 90
        2
176
     1
 90
        2
176
     1
 90
        3
176
     1
 90
        0
176
     1
 40
0.6
176
     1
 40
30.0
176
     1
 62
     8
420
  8421504
176
     1
 90
        1
176
     1
 90
        4
176
     1
 62
     7
176
     1
 62
   257
176
     1
 90
        1
176
     1
 90
        1
176
     1
 40
1.0
176
     1
 90
        8
176
     1
 62
     8
420
  8421504
176
     1
 40
1.0
176
     1
 90
        1
176
     1
 90
        6
176
     1
 90
        2
176
     1
 62
     7
176
     1
 90
        5
176
     1
 90
        0
176
     1
 90
        0
176
     1
290
     0
176
     1
 90
        1
176
     1
 40
0.0
176
     1
 90
        0
176
     1
290
     0
176
     1
290
     1
176
     1
290
     1
176
     1
290
     0
176
     1
290
     0
176
     1
290
     0
176
     1
290
     0
176
     1
290
     0
176
     1
290
     0
176
     1
 90
       50
176
     1
 40
0.0
176
     1
 40
1.0
176
     1
 90
        0
176
     1
 62
    18
420
        0
176
     1
 90
       50
176
     1
 90
        3
176
     1
 62
     5
420
      255
176
     1
290
     0
176
     1
 90
       50
176
     1
 90
       50
176
     1
 90
       50
176
     1
290
     0
176
     1
 90
       50
176
     1
 62
   256
176
     0
 40
1.0
176
     0
 90
        2
176
     1
  1
strokes_ogs.tif
176
     1
290
     0
176
     1
 40
1.0
176
     1
 40
1.0
176
     1
  0
VISUALSTYLE
  5
32
102
{ACAD_REACTORS
330
29
102
}
330
29
100
AcDbVisualStyle
  2
Conceptual
 70
     9
177
     3
291
     0
 70
    58
 90
        3
176
     1
 90
        2
176
     1
 90
        0
176
     1
 90
        0
176
     1
 40
0.6
176
     1
 40
30.0
176
     1
 62
     7
420
 16777215
176
     1
 90
        2
176
     1
 90
        2
176
     1
 62
     7
176
     1
 62
   257
176
     1
 90
        1
176
     1
 90
        1
176
     1
 40
179.0
176
     1
 90
        8
176
     1
 62
     7
176
     1
 40
1.0
176
     1
 90
        1
176
     1
 90
        6
176
     1
 90
        2
176
     1
 62
     7
176
     1
 90
        3
176
     1
 90
        0
176
     1
 90
        0
176
     1
290
     0
176
     1
 90
        1
176
     1
 40
0.0
176
     1
 90
        0
176
     1
290
     0
176
     1
290
     1
176
     1
290
     1
176
     1
290
     0
176
     1
290
     0
176
     1
290
     0
176
     1
290
     0
176
     1
290
     0
176
     1
290
     0
176
     1
 90
       50
176
     1
 40
0.0
176
     1
 40
1.0
176
     1
 90
        0
176
     1
 62
    18
420
        0
176
     1
 90
       50
176
     1
 90
        3
176
     1
 62
     5
420
      255
176
     1
290
     0
176
     1
 90
       50
176
     1
 90
       50
176
     1
 90
       50
176
     1
290
     0
176
     1
 90
       50
176
     1
 62
   256
176
     0
 40
1.0
176
     0
 90
        2
176
     1
  1
strokes_ogs.tif
176
     1
290
     0
176
     1
 40
1.0
176
     1
 40
1.0
176
     1
  0
VISUALSTYLE
  5
34
102
{ACAD_REACTORS
330
29
102
}
330
29
100
AcDbVisualStyle
  2
Dim
 70
    11
177
     3
291
     1
 70
    58
 90
        2
176
     1
 90
        2
176
     1
 90
        0
176
     1
 90
        0
176
     1
 40
0.6
176
     1
 40
30.0
176
     1
 62
     7
420
 16777215
176
     1
 90
        1
176
     1
 90
        4
176
     1
 62
     7
176
     1
 62
   257
176
     1
 90
        1
176
     1
 90
        1
176
     1
 40
1.0
176
     1
 90
        8
176
     1
 62
     7
176
     1
 40
1.0
176
     1
 90
        1
176
     1
 90
        6
176
     1
 90
        2
176
     1
 62
     7
176
     1
 90
        5
176
     1
 90
        0
176
     1
 90
        0
176
     1
290
     0
176
     1
 90
        1
176
     1
 40
-50.0
176
     1
 90
        0
176
     1
290
     0
176
     1
290
     1
176
     1
290
     1
176
     1
290
     0
176
     1
290
     0
176
     1
290
     0
176
     1
290
     0
176
     1
290
     0
176
     1
290
     0
176
     1
 90
       50
176
     1
 40
0.0
176
     1
 40
1.0
176
     1
 90
        0
176
     1
 62
    18
420
        0
176
     1
 90
       50
176
     1
 90
        3
176
     1
 62
     5
420
      255
176
     1
290
     0
176
     1
 90
       50
176
     1
 90
       50
176
     1
 90
       50
176
     1
290
     0
176
     1
 90
       50
176
     1
 62
   256
176
     0
 40
1.0
176
     0
 90
        2
176
     1
  1
strokes_ogs.tif
176
     1
290
     0
176
     1
 40
1.0
176
     1
 40
1.0
176
     1
  0
VISUALSTYLE
  5
41
102
{ACAD_REACTORS
330
29
102
}
330
29
100
AcDbVisualStyle
  2
EdgeColorOff
 70
    22
177
     3
291
     1
 70
    58
 90
        2
176
     0
 90
        2
176
     0
 90
        0
176
     0
 90
        0
176
     0
 40
0.6
176
     0
 40
30.0
176
     0
 62
     7
420
 16777215
176
     0
 90
        1
176
     0
 90
        4
176
     0
 62
     7
176
     0
 62
   257
176
     0
 90
        1
176
     0
 90
        1
176
     0
 40
1.0
176
     0
 90
        8
176
     2
 62
     7
176
     0
 40
1.0
176
     0
 90
        1
176
     0
 90
        6
176
     0
 90
        2
176
     0
 62
     7
176
     0
 90
        5
176
     0
 90
        0
176
     0
 90
        0
176
     0
290
     0
176
     0
 90
        1
176
     0
 40
0.0
176
     0
 90
        0
176
     0
290
     0
176
     0
290
     1
176
     0
290
     1
176
     0
290
     0
176
     0
290
     0
176
     0
290
     0
176
     0
290
     0
176
     0
290
     0
176
     0
290
     0
176
     0
 90
       50
176
     0
 40
0.0
176
     0
 40
1.0
176
     0
 90
        0
176
     0
 62
    18
420
        0
176
     0
 90
       50
176
     0
 90
        3
176
     0
 62
     5
420
      255
176
     0
290
     0
176
     0
 90
       50
176
     0
 90
       50
176
     0
 90
       50
176
     0
290
     0
176
     0
 90
       50
176
     0
 62
   256
176
     0
 40
1.0
176
     0
 90
        2
176
     0
  1
strokes_ogs.tif
176
     0
290
     0
176
     0
 40
1.0
176
     0
 40
1.0
176
     0
  0
VISUALSTYLE
  5
38
102
{ACAD_REACTORS
330
29
102
}
330
29
100
AcDbVisualStyle
  2
Facepattern
 70
    15
177
     3
291
     1
 70
    58
 90
        2
176
     1
 90
        2
176
     1
 90
        0
176
     1
 90
        0
176
     1
 40
0.6
176
     1
 40
30.0
176
     1
 62
     7
420
 16777215
176
     1
 90
        1
176
     1
 90
        4
176
     1
 62
     7
176
     1
 62
   257
176
     1
 90
        1
176
     1
 90
        1
176
     1
 40
1.0
176
     1
 90
        8
176
     1
 62
     7
176
     1
 40
1.0
176
     1
 90
        1
176
     1
 90
        6
176
     1
 90
        2
176
     1
 62
     7
176
     1
 90
        5
176
     1
 90
        0
176
     1
 90
        0
176
     1
290
     0
176
     1
 90
        1
176
     1
 40
0.0
176
     1
 90
        0
176
     1
290
     0
176
     1
290
     1
176
     1
290
     1
176
     1
290
     0
176
     1
290
     0
176
     1
290
     0
176
     1
290
     0
176
     1
290
     0
176
     1
290
     0
176
     1
 90
       50
176
     1
 40
0.0
176
     1
 40
1.0
176
     1
 90
        0
176
     1
 62
    18
420
        0
176
     1
 90
       50
176
     1
 90
        3
176
     1
 62
     5
420
      255
176
     1
290
     0
176
     1
 90
       50
176
     1
 90
       50
176
     1
 90
       50
176
     1
290
     0
176
     1
 90
       50
176
     1
 62
   256
176
     0
 40
1.0
176
     0
 90
        2
176
     1
  1
strokes_ogs.tif
176
     1
290
     0
176
     1
 40
1.0
176
     1
 40
1.0
176
     1
  0
VISUALSTYLE
  5
2A
102
{ACAD_REACTORS
330
29
102
}
330
29
100
AcDbVisualStyle
  2
Flat
 70
     0
177
     3
291
     1
 70
    58
 90
        2
176
     1
 90
        1
176
     1
 90
        1
176
     1
 90
        2
176
     1
 40
0.6
176
     1
 40
30.0
176
     1
 62
     7
420
 16777215
176
     1
 90
        0
176
     1
 90
        0
176
     1
 62
     7
176
     1
 62
   257
176
     1
 90
        1
176
     1
 90
        1
176
     1
 40
1.0
176
     1
 90
        8
176
     1
 62
     7
176
     1
 40
1.0
176
     1
 90
        1
176
     1
 90
        6
176
     1
 90
        2
176
     1
 62
     7
176
     1
 90
        5
176
     1
 90
        0
176
     1
 90
        0
176
     1
290
     0
176
     1
 90
       13
176
     1
 40
0.0
176
     1
 90
        0
176
     1
290
     0
176
     1
290
     1
176
     1
290
     1
176
     1
290
     0
176
     1
290
     0
176
     1
290
     0
176
     1
290
     0
176
     1
290
     0
176
     1
290
     0
176
     1
 90
       50
176
     1
 40
0.0
176
     1
 40
1.0
176
     1
 90
        0
176
     1
 62
    18
420
        0
176
     1
 90
       50
176
     1
 90
        3
176
     1
 62
     5
420
      255
176
     1
290
     0
176
     1
 90
       50
176
     1
 90
       50
176
     1
 90
       50
176
     1
290
     0
176
     1
 90
       50
176
     1
 62
   256
176
     0
 40
1.0
176
     0
 90
        2
176
     1
  1
strokes_ogs.tif
176
     1
290
     0
176
     1
 40
1.0
176
     1
 40
1.0
176
     1
  0
VISUALSTYLE
  5
2B
102
{ACAD_REACTORS
330
29
102
}
330
29
100
AcDbVisualStyle
  2
FlatWithEdges
 70
     1
177
     3
291
     1
 70
    58
 90
        2
176
     1
 90
        1
176
     1
 90
        1
176
     1
 90
        2
176
     1
 40
0.6
176
     1
 40
30.0
176
     1
 62
     7
420
 16777215
176
     1
 90
        1
176
     1
 90
        0
176
     1
 62
     7
176
     1
 62
   257
176
     1
 90
        1
176
     1
 90
        1
176
     1
 40
1.0
176
     1
 90
        0
176
     1
 62
   257
176
     1
 40
1.0
176
     1
 90
        1
176
     1
 90
        6
176
     1
 90
        2
176
     1
 62
     7
176
     1
 90
        5
176
     1
 90
        0
176
     1
 90
        0
176
     1
290
     0
176
     1
 90
       13
176
     1
 40
0.0
176
     1
 90
        0
176
     1
290
     0
176
     1
290
     1
176
     1
290
     1
176
     1
290
     0
176
     1
290
     0
176
     1
290
     0
176
     1
290
     0
176
     1
290
     0
176
     1
290
     0
176
     1
 90
       50
176
     1
 40
0.0
176
     1
 40
1.0
176
     1
 90
        0
176
     1
 62
    18
420
        0
176
     1
 90
       50
176
     1
 90
        3
176
     1
 62
     5
420
      255
176
     1
290
     0
176
     1
 90
       50
176
     1
 90
       50
176
     1
 90
       50
176
     1
290
     0
176
     1
 90
       50
176
     1
 62
   256
176
     0
 40
1.0
176
     0
 90
        2
176
     1
  1
strokes_ogs.tif
176
     1
290
     0
176
     1
 40
1.0
176
     1
 40
1.0
176
     1
  0
VISUALSTYLE
  5
2C
102
{ACAD_REACTORS
330
29
102
}
330
29
100
AcDbVisualStyle
  2
Gouraud
 70
     2
177
     3
291
     1
 70
    58
 90
        2
176
     1
 90
        2
176
     1
 90
        1
176
     1
 90
        2
176
     1
 40
0.6
176
     1
 40
30.0
176
     1
 62
     7
420
 16777215
176
     1
 90
        0
176
     1
 90
        0
176
     1
 62
     7
176
     1
 62
   257
176
     1
 90
        1
176
     1
 90
        1
176
     1
 40
1.0
176
     1
 90
        0
176
     1
 62
     7
176
     1
 40
1.0
176
     1
 90
        1
176
     1
 90
        6
176
     1
 90
        2
176
     1
 62
     7
176
     1
 90
        5
176
     1
 90
        0
176
     1
 90
        0
176
     1
290
     0
176
     1
 90
       13
176
     1
 40
0.0
176
     1
 90
        0
176
     1
290
     0
176
     1
290
     1
176
     1
290
     1
176
     1
290
     0
176
     1
290
     0
176
     1
290
     0
176
     1
290
     0
176
     1
290
     0
176
     1
290
     0
176
     1
 90
       50
176
     1
 40
0.0
176
     1
 40
1.0
176
     1
 90
        0
176
     1
 62
    18
420
        0
176
     1
 90
       50
176
     1
 90
        3
176
     1
 62
     5
420
      255
176
     1
290
     0
176
     1
 90
       50
176
     1
 90
       50
176
     1
 90
       50
176
     1
290
     0
176
     1
 90
       50
176
     1
 62
   256
176
     0
 40
1.0
176
     0
 90
        2
176
     1
  1
strokes_ogs.tif
176
     1
290
     0
176
     1
 40
1.0
176
     1
 40
1.0
176
     1
  0
VISUALSTYLE
  5
2D
102
{ACAD_REACTORS
330
29
102
}
330
29
100
AcDbVisualStyle
  2
GouraudWithEdges
 70
     3
177
     3
291
     1
 70
    58
 90
        2
176
     1
 90
        2
176
     1
 90
        1
176
     1
 90
        2
176
     1
 40
0.6
176
     1
 40
30.0
176
     1
 62
     7
420
 16777215
176
     1
 90
        1
176
     1
 90
        0
176
     1
 62
     7
176
     1
 62
   257
176
     1
 90
        1
176
     1
 90
        1
176
     1
 40
1.0
176
     1
 90
        0
176
     1
 62
   257
176
     1
 40
1.0
176
     1
 90
        1
176
     1
 90
        6
176
     1
 90
        2
176
     1
 62
     7
176
     1
 90
        5
176
     1
 90
        0
176
     1
 90
        0
176
     1
290
     0
176
     1
 90
       13
176
     1
 40
0.0
176
     1
 90
        0
176
     1
290
     0
176
     1
290
     1
176
     1
290
     1
176
     1
290
     0
176
     1
290
     0
176
     1
290
     0
176
     1
290
     0
176
     1
290
     0
176
     1
290
     0
176
     1
 90
       50
176
     1
 40
0.0
176
     1
 40
1.0
176
     1
 90
        0
176
     1
 62
    18
420
        0
176
     1
 90
       50
176
     1
 90
        3
176
     1
 62
     5
420
      255
176
     1
290
     0
176
     1
 90
       50
176
     1
 90
       50
176
     1
 90
       50
176
     1
290
     0
176
     1
 90
       50
176
     1
 62
   256
176
     0
 40
1.0
176
     0
 90
        2
176
     1
  1
strokes_ogs.tif
176
     1
290
     0
176
     1
 40
1.0
176
     1
 40
1.0
176
     1
  0
VISUALSTYLE
  5
31
102
{ACAD_REACTORS
330
29
102
}
330
29
100
AcDbVisualStyle
  2
Hidden
 70
     6
177
     3
291
     0
 70
    58
 90
        1
176
     1
 90
        2
176
     1
 90
        2
176
     1
 90
        0
176
     1
 40
0.6
176
     1
 40
30.0
176
     1
 62
     7
420
 16777215
176
     1
 90
        2
176
     1
 90
        2
176
     1
 62
     7
176
     1
 62
   257
176
     1
 90
        2
176
     1
 90
        1
176
     1
 40
40.0
176
     1
 90
        0
176
     1
 62
   257
176
     1
 40
1.0
176
     1
 90
        1
176
     1
 90
        6
176
     1
 90
        2
176
     1
 62
     7
176
     1
 90
        3
176
     1
 90
        0
176
     1
 90
        0
176
     1
290
     0
176
     1
 90
        1
176
     1
 40
0.0
176
     1
 90
        0
176
     1
290
     0
176
     1
290
     1
176
     1
290
     1
176
     1
290
     0
176
     1
290
     0
176
     1
290
     0
176
     1
290
     0
176
     1
290
     0
176
     1
290
     0
176
     1
 90
       50
176
     1
 40
0.0
176
     1
 40
1.0
176
     1
 90
        0
176
     1
 62
    18
420
        0
176
     1
 90
       50
176
     1
 90
        3
176
     1
 62
     5
420
      255
176
     1
290
     0
176
     1
 90
       50
176
     1
 90
       50
176
     1
 90
       50
176
     1
290
     0
176
     1
 90
       50
176
     1
 62
   256
176
     0
 40
1.0
176
     0
 90
        2
176
     1
  1
strokes_ogs.tif
176
     1
290
     0
176
     1
 40
1.0
176
     1
 40
1.0
176
     1
  0
VISUALSTYLE
  5
3F
102
{ACAD_REACTORS
330
29
102
}
330
29
100
AcDbVisualStyle
  2
JitterOff
 70
    20
177
     3
291
     1
 70
    58
 90
        2
176
     0
 90
        2
176
     0
 90
        0
176
     0
 90
        0
176
     0
 40
0.6
176
     0
 40
30.0
176
     0
 62
     7
420
 16777215
176
     0
 90
        1
176
     0
 90
        4
176
     0
 62
     7
176
     0
 62
   257
176
     0
 90
        1
176
     0
 90
        1
176
     0
 40
1.0
176
     0
 90
       10
176
     2
 62
     7
176
     0
 40
1.0
176
     0
 90
        1
176
     0
 90
        6
176
     0
 90
        2
176
     0
 62
     7
176
     0
 90
        5
176
     0
 90
        0
176
     0
 90
        0
176
     0
290
     0
176
     0
 90
        1
176
     0
 40
0.0
176
     0
 90
        0
176
     0
290
     0
176
     0
290
     1
176
     0
290
     1
176
     0
290
     0
176
     0
290
     0
176
     0
290
     0
176
     0
290
     0
176
     0
290
     0
176
     0
290
     0
176
     0
 90
       50
176
     0
 40
0.0
176
     0
 40
1.0
176
     0
 90
        0
176
     0
 62
    18
420
        0
176
     0
 90
       50
176
     0
 90
        3
176
     0
 62
     5
420
      255
176
     0
290
     0
176
     0
 90
       50
176
     0
 90
       50
176
     0
 90
       50
176
     0
290
     0
176
     0
 90
       50
176
     0
 62
   256
176
     0
 40
1.0
176
     0
 90
        2
176
     0
  1
strokes_ogs.tif
176
     0
290
     0
176
     0
 40
1.0
176
     0
 40
1.0
176
     0
  0
VISUALSTYLE
  5
37
102
{ACAD_REACTORS
330
29
102
}
330
29
100
AcDbVisualStyle
  2
Linepattern
 70
    14
177
     3
291
     1
 70
    58
 90
        2
176
     1
 90
        2
176
     1
 90
        0
176
     1
 90
        0
176
     1
 40
0.6
176
     1
 40
30.0
176
     1
 62
     7
420
 16777215
176
     1
 90
        1
176
     1
 90
        4
176
     1
 62
     7
176
     1
 62
   257
176
     1
 90
        7
176
     1
 90
        7
176
     1
 40
1.0
176
     1
 90
        8
176
     1
 62
     7
176
     1
 40
1.0
176
     1
 90
        1
176
     1
 90
        6
176
     1
 90
        2
176
     1
 62
     7
176
     1
 90
        5
176
     1
 90
        0
176
     1
 90
        0
176
     1
290
     0
176
     1
 90
        1
176
     1
 40
0.0
176
     1
 90
        0
176
     1
290
     0
176
     1
290
     1
176
     1
290
     1
176
     1
290
     0
176
     1
290
     0
176
     1
290
     0
176
     1
290
     0
176
     1
290
     0
176
     1
290
     0
176
     1
 90
       50
176
     1
 40
0.0
176
     1
 40
1.0
176
     1
 90
        0
176
     1
 62
    18
420
        0
176
     1
 90
       50
176
     1
 90
        3
176
     1
 62
     5
420
      255
176
     1
290
     0
176
     1
 90
       50
176
     1
 90
       50
176
     1
 90
       50
176
     1
290
     0
176
     1
 90
       50
176
     1
 62
   256
176
     0
 40
1.0
176
     0
 90
        2
176
     1
  1
strokes_ogs.tif
176
     1
290
     0
176
     1
 40
1.0
176
     1
 40
1.0
176
     1
  0
VISUALSTYLE
  5
40
102
{ACAD_REACTORS
330
29
102
}
330
29
100
AcDbVisualStyle
  2
OverhangOff
 70
    21
177
     3
291
     1
 70
    58
 90
        2
176
     0
 90
        2
176
     0
 90
        0
176
     0
 90
        0
176
     0
 40
0.6
176
     0
 40
30.0
176
     0
 62
     7
420
 16777215
176
     0
 90
        1
176
     0
 90
        4
176
     0
 62
     7
176
     0
 62
   257
176
     0
 90
        1
176
     0
 90
        1
176
     0
 40
1.0
176
     0
 90
        9
176
     2
 62
     7
176
     0
 40
1.0
176
     0
 90
        1
176
     0
 90
        6
176
     0
 90
        2
176
     0
 62
     7
176
     0
 90
        5
176
     0
 90
        0
176
     0
 90
        0
176
     0
290
     0
176
     0
 90
        1
176
     0
 40
0.0
176
     0
 90
        0
176
     0
290
     0
176
     0
290
     1
176
     0
290
     1
176
     0
290
     0
176
     0
290
     0
176
     0
290
     0
176
     0
290
     0
176
     0
290
     0
176
     0
290
     0
176
     0
 90
       50
176
     0
 40
0.0
176
     0
 40
1.0
176
     0
 90
        0
176
     0
 62
    18
420
        0
176
     0
 90
       50
176
     0
 90
        3
176
     0
 62
     5
420
      255
176
     0
290
     0
176
     0
 90
       50
176
     0
 90
       50
176
     0
 90
       50
176
     0
290
     0
176
     0
 90
       50
176
     0
 62
   256
176
     0
 40
1.0
176
     0
 90
        2
176
     0
  1
strokes_ogs.tif
176
     0
290
     0
176
     0
 40
1.0
176
     0
 40
1.0
176
     0
  0
VISUALSTYLE
  5
33
102
{ACAD_REACTORS
330
29
102
}
330
29
100
AcDbVisualStyle
  2
Realistic
 70
     8
177
     3
291
     0
 70
    58
 90
        2
176
     1
 90
        3
176
     1
 90
        0
176
     1
 90
        2
176
     1
 40
0.6
176
     1
 40
30.0
176
     1
 62
     7
420
 16777215
176
     1
 90
        0
176
     1
 90
        0
176
     1
 62
     7
176
     1
 62
   257
176
     1
 90
        1
176
     1
 90
        1
176
     1
 40
1.0
176
     1
 90
        8
176
     1
 62
   257
176
     1
 40
1.0
176
     1
 90
        1
176
     1
 90
        6
176
     1
 90
        2
176
     1
 62
     7
176
     1
 90
        3
176
     1
 90
        0
176
     1
 90
        0
176
     1
290
     0
176
     1
 90
       13
176
     1
 40
0.0
176
     1
 90
        0
176
     1
290
     0
176
     1
290
     1
176
     1
290
     1
176
     1
290
     0
176
     1
290
     0
176
     1
290
     0
176
     1
290
     0
176
     1
290
     0
176
     1
290
     0
176
     1
 90
       50
176
     1
 40
0.0
176
     1
 40
1.0
176
     1
 90
        0
176
     1
 62
    18
420
        0
176
     1
 90
       50
176
     1
 90
        3
176
     1
 62
     5
420
      255
176
     1
290
     0
176
     1
 90
       50
176
     1
 90
       50
176
     1
 90
       50
176
     1
290
     0
176
     1
 90
       50
176
     1
 62
   256
176
     0
 40
1.0
176
     0
 90
        2
176
     1
  1
strokes_ogs.tif
176
     1
290
     0
176
     1
 40
1.0
176
     1
 40
1.0
176
     1
  0
VISUALSTYLE
  5
3E
102
{ACAD_REACTORS
330
29
102
}
330
29
100
AcDbVisualStyle
  2
Shaded
 70
    27
177
     3
291
     0
 70
    58
 90
        2
176
     1
 90
        2
176
     1
 90
        1
176
     1
 90
        2
176
     1
 40
0.6
176
     1
 40
30.0
176
     1
 62
     7
420
 16777215
176
     1
 90
        0
176
     1
 90
        4
176
     1
 62
     7
176
     1
 62
   257
176
     1
 90
        1
176
     1
 90
        1
176
     1
 40
1.0
176
     1
 90
        8
176
     1
 62
   257
176
     1
 40
1.0
176
     1
 90
        1
176
     1
 90
        6
176
     1
 90
        2
176
     1
 62
     8
420
  7895160
176
     1
 90
        3
176
     1
 90
        0
176
     1
 90
        0
176
     1
290
     0
176
     1
 90
        5
176
     1
 40
0.0
176
     1
 90
        0
176
     1
290
     0
176
     1
290
     1
176
     1
290
     1
176
     1
290
     0
176
     1
290
     0
176
     1
290
     0
176
     1
290
     0
176
     1
290
     0
176
     1
290
     0
176
     1
 90
       50
176
     1
 40
0.0
176
     1
 40
1.0
176
     1
 90
        0
176
     1
 62
    18
420
        0
176
     1
 90
       50
176
     1
 90
        3
176
     1
 62
     5
420
      255
176
     1
290
     0
176
     1
 90
       50
176
     1
 90
       50
176
     1
 90
       50
176
     1
290
     0
176
     1
 90
       50
176
     1
 62
   256
176
     0
 40
1.0
176
     0
 90
        2
176
     1
  1
strokes_ogs.tif
176
     1
290
     0
176
     1
 40
1.0
176
     1
 40
1.0
176
     1
  0
VISUALSTYLE
  5
3D
102
{ACAD_REACTORS
330
29
102
}
330
29
100
AcDbVisualStyle
  2
Shaded with edges
 70
    26
177
     3
291
     0
 70
    58
 90
        2
176
     1
 90
        2
176
     1
 90
        1
176
     1
 90
        2
176
     1
 40
0.6
176
     1
 40
30.0
176
     1
 62
     7
420
 16777215
176
     1
 90
        1
176
     1
 90
        2
176
     1
 62
     7
176
     1
 62
   257
176
     1
 90
        2
176
     1
 90
        1
176
     1
 40
1.0
176
     1
 90
        8
176
     1
 62
   257
176
     1
 40
1.0
176
     1
 90
        1
176
     1
 90
        6
176
     1
 90
        2
176
     1
 62
     7
176
     1
 90
        3
176
     1
 90
        0
176
     1
 90
        0
176
     1
290
     0
176
     1
 90
        5
176
     1
 40
0.0
176
     1
 90
        0
176
     1
290
     0
176
     1
290
     1
176
     1
290
     1
176
     1
290
     0
176
     1
290
     0
176
     1
290
     0
176
     1
290
     0
176
     1
290
     0
176
     1
290
     0
176
     1
 90
       50
176
     1
 40
0.0
176
     1
 40
1.0
176
     1
 90
        0
176
     1
 62
    18
420
        0
176
     1
 90
       50
176
     1
 90
        3
176
     1
 62
     5
420
      255
176
     1
290
     0
176
     1
 90
       50
176
     1
 90
       50
176
     1
 90
       50
176
     1
290
     0
176
     1
 90
       50
176
     1
 62
   256
176
     0
 40
1.0
176
     0
 90
        2
176
     1
  1
strokes_ogs.tif
176
     1
290
     0
176
     1
 40
1.0
176
     1
 40
1.0
176
     1
  0
VISUALSTYLE
  5
3A
102
{ACAD_REACTORS
330
29
102
}
330
29
100
AcDbVisualStyle
  2
Shades of Gray
 70
    23
177
     3
291
     0
 70
    58
 90
        2
176
     1
 90
        2
176
     1
 90
        3
176
     1
 90
        0
176
     1
 40
0.6
176
     1
 40
30.0
176
     1
 62
     7
420
 16777215
176
     1
 90
        2
176
     1
 90
        2
176
     1
 62
     7
176
     1
 62
     7
176
     1
 90
        1
176
     1
 90
        1
176
     1
 40
40.0
176
     1
 90
        8
176
     1
 62
     7
176
     1
 40
1.0
176
     1
 90
        1
176
     1
 90
        6
176
     1
 90
        2
176
     1
 62
     7
176
     1
 90
        3
176
     1
 90
        0
176
     1
 90
        0
176
     1
290
     0
176
     1
 90
        1
176
     1
 40
0.0
176
     1
 90
        0
176
     1
290
     0
176
     1
290
     1
176
     1
290
     1
176
     1
290
     0
176
     1
290
     0
176
     1
290
     0
176
     1
290
     0
176
     1
290
     0
176
     1
290
     0
176
     1
 90
       50
176
     1
 40
0.0
176
     1
 40
1.0
176
     1
 90
        0
176
     1
 62
    18
420
        0
176
     1
 90
       50
176
     1
 90
        3
176
     1
 62
     5
420
      255
176
     1
290
     0
176
     1
 90
       50
176
     1
 90
       50
176
     1
 90
       50
176
     1
290
     0
176
     1
 90
       50
176
     1
 62
   256
176
     0
 40
1.0
176
     0
 90
        2
176
     1
  1
strokes_ogs.tif
176
     1
290
     0
176
     1
 40
1.0
176
     1
 40
1.0
176
     1
  0
VISUALSTYLE
  5
3B
102
{ACAD_REACTORS
330
29
102
}
330
29
100
AcDbVisualStyle
  2
Sketchy
 70
    24
177
     3
291
     0
 70
    58
 90
        1
176
     1
 90
        2
176
     1
 90
        2
176
     1
 90
        0
176
     1
 40
0.6
176
     1
 40
30.0
176
     1
 62
     7
420
 16777215
176
     1
 90
        2
176
     1
 90
        2
176
     1
 62
     7
176
     1
 62
     7
176
     1
 90
        1
176
     1
 90
        1
176
     1
 40
40.0
176
     1
 90
       11
176
     1
 62
     7
176
     1
 40
1.0
176
     1
 90
        1
176
     1
 90
        6
176
     1
 90
        2
176
     1
 62
     7
176
     1
 90
        6
176
     1
 90
        0
176
     1
 90
        0
176
     1
290
     0
176
     1
 90
        1
176
     1
 40
0.0
176
     1
 90
        0
176
     1
290
     0
176
     1
290
     1
176
     1
290
     1
176
     1
290
     0
176
     1
290
     0
176
     1
290
     0
176
     1
290
     0
176
     1
290
     0
176
     1
290
     0
176
     1
 90
       50
176
     1
 40
0.0
176
     1
 40
1.0
176
     1
 90
        0
176
     1
 62
    18
420
        0
176
     1
 90
       50
176
     1
 90
        3
176
     1
 62
     5
420
      255
176
     1
290
     0
176
     1
 90
       50
176
     1
 90
       50
176
     1
 90
       50
176
     1
290
     0
176
     1
 90
       50
176
     1
 62
   256
176
     0
 40
1.0
176
     0
 90
        2
176
     1
  1
strokes_ogs.tif
176
     1
290
     0
176
     1
 40
1.0
176
     1
 40
1.0
176
     1
  0
VISUALSTYLE
  5
36
102
{ACAD_REACTORS
330
29
102
}
330
29
100
AcDbVisualStyle
  2
Thicken
 70
    13
177
     3
291
     1
 70
    58
 90
        2
176
     1
 90
        2
176
     1
 90
        0
176
     1
 90
        0
176
     1
 40
0.6
176
     1
 40
30.0
176
     1
 62
     7
420
 16777215
176
     1
 90
        1
176
     1
 90
        4
176
     1
 62
     7
176
     1
 62
   257
176
     1
 90
        1
176
     1
 90
        1
176
     1
 40
1.0
176
     1
 90
       12
176
     1
 62
     7
176
     1
 40
1.0
176
     1
 90
        1
176
     1
 90
        6
176
     1
 90
        2
176
     1
 62
     7
176
     1
 90
        5
176
     1
 90
        0
176
     1
 90
        0
176
     1
290
     0
176
     1
 90
        1
176
     1
 40
0.0
176
     1
 90
        0
176
     1
290
     0
176
     1
290
     1
176
     1
290
     1
176
     1
290
     0
176
     1
290
     0
176
     1
290
     0
176
     1
290
     0
176
     1
290
     0
176
     1
290
     0
176
     1
 90
       50
176
     1
 40
0.0
176
     1
 40
1.0
176
     1
 90
        0
176
     1
 62
    18
420
        0
176
     1
 90
       50
176
     1
 90
        3
176
     1
 62
     5
420
      255
176
     1
290
     0
176
     1
 90
       50
176
     1
 90
       50
176
     1
 90
       50
176
     1
290
     0
176
     1
 90
       50
176
     1
 62
   256
176
     0
 40
1.0
176
     0
 90
        2
176
     1
  1
strokes_ogs.tif
176
     1
290
     0
176
     1
 40
1.0
176
     1
 40
1.0
176
     1
  0
VISUALSTYLE
  5
30
102
{ACAD_REACTORS
330
29
102
}
330
29
100
AcDbVisualStyle
  2
Wireframe
 70
     5
177
     3
291
     0
 70
    58
 90
        0
176
     1
 90
        2
176
     1
 90
        0
176
     1
 90
        0
176
     1
 40
0.6
176
     1
 40
30.0
176
     1
 62
     7
420
 16777215
176
     1
 90
        1
176
     1
 90
        4
176
     1
 62
     7
176
     1
 62
   257
176
     1
 90
        1
176
     1
 90
        1
176
     1
 40
1.0
176
     1
 90
        0
176
     1
 62
   257
176
     1
 40
1.0
176
     1
 90
        1
176
     1
 90
        6
176
     1
 90
        2
176
     1
 62
     7
176
     1
 90
        3
176
     1
 90
        0
176
     1
 90
        0
176
     1
290
     0
176
     1
 90
        1
176
     1
 40
0.0
176
     1
 90
        0
176
     1
290
     0
176
     1
290
     1
176
     1
290
     1
176
     1
290
     0
176
     1
290
     0
176
     1
290
     0
176
     1
290
     0
176
     1
290
     0
176
     1
290
     0
176
     1
 90
       50
176
     1
 40
0.0
176
     1
 40
1.0
176
     1
 90
        0
176
     1
 62
    18
420
        0
176
     1
 90
       50
176
     1
 90
        3
176
     1
 62
     5
420
      255
176
     1
290
     0
176
     1
 90
       50
176
     1
 90
       50
176
     1
 90
       50
176
     1
290
     0
176
     1
 90
       50
176
     1
 62
   256
176
     0
 40
1.0
176
     0
 90
        2
176
     1
  1
strokes_ogs.tif
176
     1
290
     0
176
     1
 40
1.0
176
     1
 40
1.0
176
     1
  0
VISUALSTYLE
  5
3C
102
{ACAD_REACTORS
330
29
102
}
330
29
100
AcDbVisualStyle
  2
X-Ray
 70
    25
177
     3
291
     0
 70
    58
 90
        2
176
     1
 90
        2
176
     1
 90
        1
176
     1
 90
        1
176
     1
 40
0.5
176
     1
 40
30.0
176
     1
 62
     7
420
 16777215
176
     1
 90
        1
176
     1
 90
        0
176
     1
 62
     7
176
     1
 62
   257
176
     1
 90
        1
176
     1
 90
        1
176
     1
 40
1.0
176
     1
 90
        8
176
     1
 62
     7
176
     1
 40
1.0
176
     1
 90
        1
176
     1
 90
        6
176
     1
 90
        2
176
     1
 62
     7
176
     1
 90
        3
176
     1
 90
        0
176
     1
 90
        0
176
     1
290
     0
176
     1
 90
       13
176
     1
 40
0.0
176
     1
 90
        0
176
     1
290
     0
176
     1
290
     1
176
     1
290
     1
176
     1
290
     0
176
     1
290
     0
176
     1
290
     0
176
     1
290
     0
176
     1
290
     0
176
     1
290
     0
176
     1
 90
       50
176
     1
 40
0.0
176
     1
 40
1.0
176
     1
 90
        0
176
     1
 62
    18
420
        0
176
     1
 90
       50
176
     1
 90
        3
176
     1
 62
     5
420
      255
176
     1
290
     0
176
     1
 90
       50
176
     1
 90
       50
176
     1
 90
       50
176
     1
290
     0
176
     1
 90
       50
176
     1
 62
   256
176
     0
 40
1.0
176
     0
 90
        2
176
     1
  1
strokes_ogs.tif
176
     1
290
     0
176
     1
 40
1.0
176
     1
 40
1.0
176
     1
  0
DICTIONARYVAR
  5
A3
102
{ACAD_REACTORS
330
9E
102
}
330
9E
100
DictionaryVariables
280
     0
  1
1:1
  0
DICTIONARYVAR
  5
A0
102
{ACAD_REACTORS
330
9E
102
}
330
9E
100
DictionaryVariables
280
     0
  1
STANDARD
  0
DICTIONARYVAR
  5
9F
102
{ACAD_REACTORS
330
9E
102
}
330
9E
100
DictionaryVariables
280
     0
  1
STANDARD
  0
DICTIONARYVAR
  5
A1
102
{ACAD_REACTORS
330
9E
102
}
330
9E
100
DictionaryVariables
280
     0
  1
Imperial24
  0
DICTIONARYVAR
  5
A2
102
{ACAD_REACTORS
330
9E
102
}
330
9E
100
DictionaryVariables
280
     0
  1
Imperial24
  0
DICTIONARY
  5
1A
330
19
100
AcDbDictionary
280
     1
281
     1
  3
BUMPTILE
360
1C
  3
DIFFUSETILE
360
1B
  3
OPACITYTILE
360
1F
  3
REFLECTIONTILE
360
1E
  3
REFRACTIONTILE
360
20
  3
SPECULARTILE
360
1D
  0
DICTIONARY
  5
12
330
11
100
AcDbDictionary
280
     1
281
     1
  3
BUMPTILE
360
14
  3
DIFFUSETILE
360
13
  3
OPACITYTILE
360
17
  3
REFLECTIONTILE
360
16
  3
REFRACTIONTILE
360
18
  3
SPECULARTILE
360
15
  0
DICTIONARY
  5
22
330
21
100
AcDbDictionary
280
     1
281
     1
  3
BUMPTILE
360
24
  3
DIFFUSETILE
360
23
  3
OPACITYTILE
360
27
  3
REFLECTIONTILE
360
26
  3
REFRACTIONTILE
360
28
  3
SPECULARTILE
360
25
  0
DICTIONARY
  5
A4
330
65
100
AcDbDictionary
280
     1
281
     1
  3
ACAD_ROUNDTRIP_2008_TABLESTYLE_CELLSTYLEMAP
360
A5
  0
XRECORD
  5
1C
102
{ACAD_REACTORS
330
1A
102
}
330
1A
100
AcDbXrecord
280
     1
270
     1
271
     1
  0
XRECORD
  5
1B
102
{ACAD_REACTORS
330
1A
102
}
330
1A
100
AcDbXrecord
280
     1
270
     1
271
     1
  0
XRECORD
  5
1F
102
{ACAD_REACTORS
330
1A
102
}
330
1A
100
AcDbXrecord
280
     1
270
     1
271
     1
  0
XRECORD
  5
1E
102
{ACAD_REACTORS
330
1A
102
}
330
1A
100
AcDbXrecord
280
     1
270
     1
271
     1
  0
XRECORD
  5
20
102
{ACAD_REACTORS
330
1A
102
}
330
1A
100
AcDbXrecord
280
     1
270
     1
271
     1
  0
XRECORD
  5
1D
102
{ACAD_REACTORS
330
1A
102
}
330
1A
100
AcDbXrecord
280
     1
270
     1
271
     1
  0
XRECORD
  5
14
102
{ACAD_REACTORS
330
12
102
}
330
12
100
AcDbXrecord
280
     1
270
     1
271
     1
  0
XRECORD
  5
13
102
{ACAD_REACTORS
330
12
102
}
330
12
100
AcDbXrecord
280
     1
270
     1
271
     1
  0
XRECORD
  5
17
102
{ACAD_REACTORS
330
12
102
}
330
12
100
AcDbXrecord
280
     1
270
     1
271
     1
  0
XRECORD
  5
16
102
{ACAD_REACTORS
330
12
102
}
330
12
100
AcDbXrecord
280
     1
270
     1
271
     1
  0
XRECORD
  5
18
102
{ACAD_REACTORS
330
12
102
}
330
12
100
AcDbXrecord
280
     1
270
     1
271
     1
  0
XRECORD
  5
15
102
{ACAD_REACTORS
330
12
102
}
330
12
100
AcDbXrecord
280
     1
270
     1
271
     1
  0
XRECORD
  5
24
102
{ACAD_REACTORS
330
22
102
}
330
22
100
AcDbXrecord
280
     1
270
     1
271
     1
  0
XRECORD
  5
23
102
{ACAD_REACTORS
330
22
102
}
330
22
100
AcDbXrecord
280
     1
270
     1
271
     1
  0
XRECORD
  5
27
102
{ACAD_REACTORS
330
22
102
}
330
22
100
AcDbXrecord
280
     1
270
     1
271
     1
  0
XRECORD
  5
26
102
{ACAD_REACTORS
330
22
102
}
330
22
100
AcDbXrecord
280
     1
270
     1
271
     1
  0
XRECORD
  5
28
102
{ACAD_REACTORS
330
22
102
}
330
22
100
AcDbXrecord
280
     1
270
     1
271
     1
  0
XRECORD
  5
25
102
{ACAD_REACTORS
330
22
102
}
330
22
100
AcDbXrecord
280
     1
270
     1
271
     1
  0
CELLSTYLEMAP
  5
A5
102
{ACAD_REACTORS
330
A4
102
}
330
A4
100
AcDbCellStyleMap
 90
        3
300
CELLSTYLE
  1
TABLEFORMAT_BEGIN
 90
        5
170
     1
 91
        0
 92
    32768
 62
   257
 93
        1
300
CONTENTFORMAT
  1
CONTENTFORMAT_BEGIN
 90
        0
 91
        0
 92
      512
 93
        0
300

 40
0.0
140
1.0
 94
        5
 62
     0
340
55
144
0.25
309
CONTENTFORMAT_END
171
     0
 94
        0
309
TABLEFORMAT_END
  1
CELLSTYLE_BEGIN
 90
        1
 91
        1
300
_TITLE
309
CELLSTYLE_END
300
CELLSTYLE
  1
TABLEFORMAT_BEGIN
 90
        5
170
     1
 91
        0
 92
        0
 62
   257
 93
        1
300
CONTENTFORMAT
  1
CONTENTFORMAT_BEGIN
 90
        0
 91
        0
 92
      512
 93
        0
300

 40
0.0
140
1.0
 94
        5
 62
     0
340
55
144
0.18
309
CONTENTFORMAT_END
171
     0
 94
        0
309
TABLEFORMAT_END
  1
CELLSTYLE_BEGIN
 90
        2
 91
        1
300
_HEADER
309
CELLSTYLE_END
300
CELLSTYLE
  1
TABLEFORMAT_BEGIN
 90
        5
170
     1
 91
        0
 92
        0
 62
   257
 93
        1
300
CONTENTFORMAT
  1
CONTENTFORMAT_BEGIN
 90
        0
 91
        0
 92
      512
 93
        0
300

 40
0.0
140
1.0
 94
        2
 62
     0
340
55
144
0.18
309
CONTENTFORMAT_END
171
     0
 94
        0
309
TABLEFORMAT_END
  1
CELLSTYLE_BEGIN
 90
        3
 91
        2
300
_DATA
309
CELLSTYLE_END
  0
ENDSEC
  0
EOF
